<?xml version="1.0" encoding="UTF-8"?>
<svg id="Layer_2" data-name="Layer 2" xmlns="http://www.w3.org/2000/svg" viewBox="0 0 340.7 64.08">
  <defs>
    <style>
      .cls-1 {
        fill: #52bce3;
        stroke-width: 0px;
      }
    </style>
  </defs>
  <g id="Layer_1-2" data-name="Layer 1">
    <g>
      <path class="cls-1" d="M7.79,63.02c-3.65-.54-6.02-2.22-7.11-5.03-1.09-2.81-.87-6.36.65-10.67l10.79-30.65c.98-2.83,2.11-5.26,3.39-7.27,1.28-2.02,2.89-3.57,4.82-4.66,1.93-1.09,4.34-1.63,7.23-1.63,4.36,0,7.64,1.2,9.85,3.6,2.21,2.4,4.05,5.72,5.52,9.97l10.71,30.65c1.52,4.3,1.81,7.86.86,10.67-.95,2.81-3.28,4.48-6.99,5.03-3,.38-5.6.03-7.81-1.06-2.21-1.09-3.53-2.86-3.96-5.31-.33-1.63-.37-3-.12-4.09s.48-1.96.69-2.62c.16-.54.18-1.08.04-1.59-.14-.52-.56-.78-1.27-.78h-15.2c-.71,0-1.13.26-1.27.78-.14.52-.1,1.05.12,1.59.22.65.44,1.53.65,2.62.22,1.09.19,2.45-.08,4.09-.44,2.45-1.72,4.22-3.84,5.31-2.12,1.09-4.69,1.44-7.68,1.06ZM33.54,36.13l-4.25-13.32c-.11-.54-.29-.97-.53-1.27-.25-.3-.64-.45-1.19-.45s-.94.15-1.19.45c-.25.3-.45.72-.61,1.27l-4.17,13.32h11.93Z"/>
      <path class="cls-1" d="M71.79,63.02c-3.81,0-6.92-1.44-9.32-4.33-2.4-2.89-3.62-6.95-3.68-12.18l-.08-18.88c0-2.34.72-4.18,2.17-5.52,1.44-1.33,3.42-2,5.93-2s4.33.67,5.8,2c1.47,1.33,2.21,3.17,2.21,5.52v17.08c0,4.09,1.61,6.13,4.82,6.13,1.58,0,2.64-.58,3.19-1.76.54-1.17.82-2.68.82-4.54v-16.92c0-2.12.74-3.91,2.21-5.35,1.47-1.44,3.38-2.17,5.72-2.17s4.34.72,5.68,2.17c1.33,1.44,2,3.23,2,5.35v26.81c0,2.62-.59,4.7-1.76,6.25-1.17,1.55-3.06,2.33-5.68,2.33s-4.56-.78-6.01-2.33c-1.44-1.55-2.17-3.64-2.17-6.25v-1.39h-1.47c0,3.16-.94,5.61-2.82,7.36-1.88,1.75-4.4,2.62-7.56,2.62Z"/>
      <path class="cls-1" d="M127.21,63.26c-2.89,0-5.49-.65-7.81-1.96-2.32-1.31-4.13-3.17-5.44-5.6-1.31-2.42-1.96-5.27-1.96-8.54v-14.39l-3.02.41c-1.63.22-3.08-.35-4.33-1.72-1.25-1.36-1.88-3.08-1.88-5.15s.63-3.77,1.88-5.11c1.25-1.33,2.7-1.89,4.33-1.68l3.02.41-.08-5.56c-.05-2.18.57-3.91,1.88-5.19,1.31-1.28,3.21-1.92,5.72-1.92s4.44.64,5.8,1.92c1.36,1.28,1.99,3.01,1.88,5.19l-.16,5.56,4.33-.57c2.94-.44,5.18.1,6.7,1.59,1.52,1.5,2.29,3.28,2.29,5.35s-.75,3.86-2.25,5.35c-1.5,1.5-3.67,2.06-6.5,1.68l-4.58-.57v12.18c0,.71.25,1.35.74,1.92.49.57,1.09.75,1.8.53.82-.22,1.68-.68,2.57-1.39.9-.71,2.06-1.06,3.47-1.06,2.13,0,3.76.76,4.9,2.29,1.14,1.53,1.72,3.41,1.72,5.64,0,1.75-.61,3.42-1.84,5.03-1.23,1.61-2.96,2.9-5.19,3.88-2.23.98-4.9,1.47-8.01,1.47Z"/>
      <path class="cls-1" d="M153.69,63.02c-2.4,0-4.29-.72-5.68-2.17-1.39-1.44-2.08-3.23-2.08-5.35V8.17c0-2.29.69-4.22,2.08-5.8,1.39-1.58,3.36-2.37,5.93-2.37s4.4.79,5.68,2.37c1.28,1.58,1.92,3.54,1.92,5.88v24.44h1.47c0-3.11.56-5.56,1.68-7.36,1.12-1.8,2.56-3.09,4.33-3.88,1.77-.79,3.58-1.19,5.44-1.19,3.27,0,5.76.8,7.48,2.41,1.72,1.61,2.89,3.75,3.51,6.42.63,2.67.94,5.59.94,8.75v17.66c0,2.23-.72,4.05-2.17,5.43-1.44,1.39-3.37,2.08-5.76,2.08s-4.39-.7-5.8-2.08c-1.42-1.39-2.12-3.2-2.12-5.43v-14.47c0-1.96-.38-3.49-1.14-4.58-.76-1.09-1.88-1.63-3.35-1.63s-2.59.6-3.35,1.8c-.76,1.2-1.14,2.72-1.14,4.58v14.3c0,2.12-.69,3.91-2.08,5.35-1.39,1.44-3.31,2.17-5.76,2.17Z"/>
      <path class="cls-1" d="M210.41,63.18c-6.38,0-11.46-1.89-15.24-5.68-3.79-3.79-5.68-9.14-5.68-16.06,0-4.25.87-7.98,2.62-11.2,1.74-3.21,4.18-5.73,7.31-7.56,3.13-1.82,6.8-2.74,10.99-2.74,4.69,0,8.58.91,11.69,2.74,3.11,1.83,5.44,4.35,6.99,7.56,1.55,3.22,2.33,6.95,2.33,11.2,0,6.92-1.73,12.27-5.19,16.06-3.46,3.79-8.73,5.68-15.82,5.68ZM199.22,40.05c0,1.69.84,2.88,2.53,3.56,1.69.68,4.58,1.02,8.66,1.02s6.97-.34,8.66-1.02c1.69-.68,2.53-1.87,2.53-3.56s-.85-2.78-2.53-3.43c-1.69-.65-4.58-.98-8.66-.98s-6.98.33-8.66.98c-1.69.65-2.53,1.8-2.53,3.43Z"/>
      <path class="cls-1" d="M243.52,63.02c-2.56,0-4.55-.74-5.97-2.21-1.42-1.47-2.12-3.32-2.12-5.56v-26.81c0-2.34.71-4.29,2.12-5.84,1.42-1.55,3.4-2.33,5.97-2.33s4.52.78,5.88,2.33c1.36,1.55,2.04,3.45,2.04,5.68v1.72h1.55c.22-2.89,1.31-5.26,3.27-7.11s4.28-2.78,6.95-2.78,4.78.82,6.33,2.45c1.55,1.63,2.33,3.81,2.33,6.54,0,2.56-.74,4.69-2.21,6.38-1.47,1.69-3.35,2.53-5.64,2.53-1.91,0-3.5-.45-4.78-1.35-1.28-.9-2.22-1.95-2.82-3.15-1.74-.22-3.01-.04-3.8.53-.79.57-1.19,1.7-1.19,3.39v17.82c0,2.23-.68,4.09-2.04,5.56-1.36,1.47-3.32,2.21-5.88,2.21Z"/>
      <path class="cls-1" d="M294.6,64.08c-3.76,0-7.23-.37-10.42-1.1s-5.74-1.91-7.64-3.51c-1.91-1.61-2.86-3.75-2.86-6.42,0-2.34.71-4.28,2.12-5.8,1.42-1.52,3.3-2.29,5.64-2.29,1.47,0,2.96.23,4.45.69,1.5.46,3.09.91,4.78,1.35,1.69.44,3.51.65,5.48.65,1.74,0,2.91-.09,3.51-.29.6-.19.9-.56.9-1.1,0-.65-.37-1.09-1.1-1.31-.74-.22-1.98-.49-3.72-.82l-5.88-1.14c-2.45-.49-4.84-1.13-7.15-1.92-2.32-.79-4.22-1.97-5.72-3.56-1.5-1.58-2.25-3.73-2.25-6.46,0-3.71,1.65-6.59,4.94-8.66,3.3-2.07,8.08-3.11,14.34-3.11,3.6,0,6.82.36,9.69,1.06,2.86.71,5.14,1.76,6.83,3.15,1.69,1.39,2.53,3.12,2.53,5.19.05,2.24-.55,4.03-1.8,5.39-1.25,1.36-2.83,2.04-4.74,2.04-1.36,0-2.74-.18-4.13-.53-1.39-.35-2.89-.74-4.5-1.14-1.61-.41-3.45-.64-5.52-.7-1.47-.11-2.67-.03-3.6.25-.93.27-1.39.71-1.39,1.31,0,.65.54,1.1,1.63,1.35,1.09.25,2.72.56,4.9.94l5.8,1.06c3.54.6,6.36,1.35,8.46,2.25,2.1.9,3.61,2.14,4.54,3.72.93,1.58,1.39,3.76,1.39,6.54s-.83,5.3-2.49,7.23c-1.66,1.93-3.96,3.37-6.91,4.29-2.94.93-6.32,1.39-10.14,1.39Z"/>
      <path class="cls-1" d="M330.73,30c-3.22,0-5.72-.86-7.52-2.57-1.8-1.72-2.7-3.99-2.7-6.83s.91-5.23,2.74-7.03c1.82-1.8,4.32-2.7,7.48-2.7s5.48.89,7.27,2.66c1.8,1.77,2.7,4.1,2.7,6.99s-.87,5.12-2.62,6.87c-1.74,1.74-4.2,2.62-7.36,2.62ZM320.51,51.49c0-2.89.91-5.23,2.74-7.03,1.82-1.8,4.32-2.7,7.48-2.7s5.48.89,7.27,2.66c1.8,1.77,2.7,4.1,2.7,6.99s-.87,5.12-2.62,6.87c-1.74,1.75-4.2,2.62-7.36,2.62s-5.72-.86-7.52-2.58c-1.8-1.72-2.7-3.99-2.7-6.82Z"/>
    </g>
  </g>
</svg>