<?xml version="1.0" encoding="UTF-8"?>
<svg id="Layer_2" data-name="Layer 2" xmlns="http://www.w3.org/2000/svg" viewBox="0 0 425.83 79.86">
  <defs>
    <style>
      .cls-1 {
        fill: #52bce3;
        stroke-width: 0px;
      }
    </style>
  </defs>
  <g id="Layer_1-2" data-name="Layer 1">
    <path class="cls-1" d="M28.2,63.18c-5.34,0-10.15-1.1-14.43-3.31-4.28-2.21-7.64-5.49-10.09-9.85-2.45-4.36-3.68-9.73-3.68-16.1s1.24-11.88,3.72-16.51c2.48-4.63,5.88-8.19,10.22-10.67,4.33-2.48,9.28-3.72,14.83-3.72,6.43,0,11.36.9,14.79,2.7,3.43,1.8,5.15,4.47,5.15,8.01,0,2.73-.74,4.97-2.21,6.74-1.47,1.77-3.49,2.66-6.05,2.66-2.18,0-4.29-.29-6.33-.86-2.04-.57-4.43-.86-7.15-.86-3.49,0-6.24,1.01-8.26,3.02-2.02,2.02-3.02,4.66-3.02,7.93s1.01,5.9,3.02,8.05c2.02,2.15,4.77,3.23,8.26,3.23,1.85,0,3.56-.15,5.11-.45,1.55-.3,3.08-.61,4.58-.94,1.5-.33,3.12-.49,4.86-.49,2.89,0,5.01.94,6.38,2.82,1.36,1.88,2.04,4.21,2.04,6.99s-1.01,5.03-3.02,6.74c-2.02,1.72-4.67,2.96-7.97,3.72-3.3.76-6.88,1.14-10.75,1.14Z"/>
    <path class="cls-1" d="M61.55,63.02c-2.4,0-4.29-.72-5.68-2.17-1.39-1.44-2.08-3.23-2.08-5.35V8.17c0-2.29.69-4.22,2.08-5.8,1.39-1.58,3.36-2.37,5.93-2.37s4.4.79,5.68,2.37c1.28,1.58,1.92,3.54,1.92,5.88v24.44h1.47c0-3.11.56-5.56,1.68-7.36,1.12-1.8,2.56-3.09,4.33-3.88,1.77-.79,3.58-1.18,5.44-1.18,3.27,0,5.76.8,7.48,2.41,1.72,1.61,2.89,3.75,3.51,6.42.63,2.67.94,5.59.94,8.75v17.65c0,2.24-.72,4.05-2.17,5.44-1.44,1.39-3.37,2.08-5.76,2.08s-4.39-.69-5.8-2.08c-1.42-1.39-2.12-3.2-2.12-5.44v-14.47c0-1.96-.38-3.49-1.14-4.58-.76-1.09-1.88-1.63-3.35-1.63s-2.59.6-3.35,1.8c-.76,1.2-1.14,2.73-1.14,4.58v14.3c0,2.12-.69,3.91-2.08,5.35-1.39,1.44-3.31,2.17-5.76,2.17Z"/>
    <path class="cls-1" d="M110.59,63.02c-4.03,0-7.18-1.09-9.44-3.27-2.26-2.18-3.39-5.23-3.39-9.15s1.31-6.77,3.92-8.54c2.62-1.77,5.97-2.66,10.05-2.66,2.4,0,4.58.16,6.54.49,1.96.33,3.73.79,5.31,1.39h.25v-1.23c0-1.25-.46-2.25-1.39-2.98-.93-.74-2.1-1.08-3.51-1.02-1.36,0-2.52.08-3.47.25-.95.16-2.14.44-3.56.82-2.62.65-4.88.6-6.78-.16-1.91-.76-3.22-2.26-3.92-4.5-.65-2.34-.5-4.3.45-5.89.95-1.58,2.41-2.81,4.37-3.68,1.69-.82,3.58-1.5,5.68-2.04,2.1-.54,4.37-.82,6.82-.82,7.14,0,12.38,1.73,15.73,5.19,3.35,3.46,5.03,9.25,5.03,17.37v12.67c0,2.24-.68,4.09-2.04,5.56-1.36,1.47-3.24,2.21-5.64,2.21-2.62,0-4.56-.74-5.84-2.21-1.28-1.47-1.92-3.27-1.92-5.39v-1.88h-1.63c0,1.42-.26,2.86-.78,4.33-.52,1.47-1.58,2.7-3.19,3.68-1.61.98-4.16,1.47-7.64,1.47ZM111.4,45.12c0,.93.34,1.58,1.02,1.96.68.38,2.17.57,4.45.57,2.07,0,3.51-.19,4.33-.57.82-.38,1.23-1.03,1.23-1.96,0-.87-.41-1.48-1.23-1.84-.82-.35-2.26-.53-4.33-.53-2.29,0-3.77.18-4.45.53-.68.36-1.02.97-1.02,1.84Z"/>
    <path class="cls-1" d="M151.21,63.02c-2.67,0-4.67-.71-6.01-2.12-1.34-1.42-2-3.19-2-5.31V8.17c0-2.34.67-4.29,2-5.84,1.33-1.55,3.34-2.33,6.01-2.33,2.4,0,4.25.78,5.56,2.33,1.31,1.55,1.96,3.45,1.96,5.68v47.57c0,2.12-.65,3.9-1.96,5.31-1.31,1.42-3.16,2.12-5.56,2.12Z"/>
    <path class="cls-1" d="M171.56,63.02c-2.67,0-4.67-.71-6.01-2.12-1.34-1.42-2-3.19-2-5.31V8.17c0-2.34.67-4.29,2-5.84,1.33-1.55,3.34-2.33,6.01-2.33,2.4,0,4.25.78,5.56,2.33,1.31,1.55,1.96,3.45,1.96,5.68v47.57c0,2.12-.65,3.9-1.96,5.31-1.31,1.42-3.16,2.12-5.56,2.12Z"/>
    <path class="cls-1" d="M182.84,41.77c0-4.3.86-8.09,2.57-11.36s4.17-5.83,7.36-7.68c3.19-1.85,6.99-2.78,11.4-2.78,3.43,0,6.52.63,9.28,1.88,2.75,1.25,4.92,2.93,6.5,5.03,1.58,2.1,2.37,4.4,2.37,6.91s-.76,4.47-2.29,5.56c-1.53,1.09-3.79,1.63-6.78,1.63h-17.16c0,1.42.56,2.59,1.68,3.51,1.12.93,3.01,1.39,5.68,1.39,1.36,0,2.63-.14,3.8-.41,1.17-.27,2.37-.53,3.6-.78s2.6-.37,4.13-.37c2.18,0,3.98.78,5.39,2.33,1.42,1.55,2.12,3.69,2.12,6.42,0,3.22-1.65,5.72-4.94,7.52-3.3,1.8-7.62,2.7-12.96,2.7-3.76,0-7.29-.74-10.58-2.21-3.3-1.47-5.98-3.8-8.05-6.99-2.07-3.19-3.11-7.29-3.11-12.3ZM209.32,38.25c.82,0,1.09-.38.82-1.14-.22-.76-.87-1.55-1.96-2.37-1.09-.82-2.67-1.23-4.74-1.23-2.4,0-4.18.52-5.35,1.55-1.17,1.04-1.76,2.1-1.76,3.19h13Z"/>
    <path class="cls-1" d="M234.08,63.02c-2.4,0-4.32-.72-5.76-2.17-1.44-1.44-2.17-3.23-2.17-5.35v-27.05c0-2.29.68-4.22,2.04-5.8,1.36-1.58,3.32-2.37,5.89-2.37s4.41.79,5.72,2.37c1.31,1.58,1.96,3.57,1.96,5.97v4.09h1.47c0-3.11.56-5.56,1.68-7.36,1.12-1.8,2.55-3.09,4.29-3.88,1.74-.79,3.49-1.18,5.23-1.18,4.2,0,7.27,1.51,9.24,4.54,1.96,3.02,2.94,7.32,2.94,12.87v17.82c0,2.12-.71,3.91-2.12,5.35-1.42,1.44-3.32,2.17-5.72,2.17s-4.4-.72-5.84-2.17c-1.44-1.44-2.17-3.23-2.17-5.35v-14.47c0-1.96-.37-3.49-1.1-4.58-.74-1.09-1.81-1.63-3.23-1.63-1.63,0-2.82.6-3.56,1.8-.74,1.2-1.1,2.73-1.1,4.58v14.3c0,2.12-.68,3.91-2.04,5.35-1.36,1.44-3.24,2.17-5.64,2.17Z"/>
    <path class="cls-1" d="M289.91,79.86c-3.32,0-6.14-.36-8.46-1.06-2.32-.71-4.54-1.8-6.66-3.27-1.85-1.31-3.16-3.13-3.92-5.48-.76-2.34-.38-4.71,1.14-7.11.98-1.47,2.08-2.48,3.31-3.02,1.23-.54,2.42-.78,3.6-.7,1.17.08,2.19.34,3.06.78,1.91.93,3.39,1.59,4.45,2,1.06.41,2.27.61,3.64.61,2.02,0,3.72-.71,5.11-2.12,1.39-1.42,2.08-3.41,2.08-5.97v-6.62h-1.47c-.38,2.89-1.49,5.16-3.31,6.83-1.83,1.66-4.32,2.49-7.48,2.49-2.4,0-4.74-.6-7.03-1.8-2.29-1.2-4.17-3.11-5.64-5.72-1.47-2.62-2.21-6.08-2.21-10.38,0-6.32,1.39-11.03,4.17-14.14,2.78-3.11,6.38-4.66,10.79-4.66,3.05,0,5.67,1.02,7.85,3.07,2.18,2.04,3.27,4.89,3.27,8.54l.25-.08v-4.58c0-1.91.61-3.58,1.84-5.03,1.23-1.44,3.15-2.17,5.76-2.17,2.78,0,4.78.72,6.01,2.17,1.23,1.44,1.84,3.12,1.84,5.03l.08,25.75c.05,5.67-.64,10.49-2.08,14.47-1.44,3.98-3.79,7-7.03,9.07-3.24,2.07-7.56,3.11-12.96,3.11ZM283.86,37.92c0,2.94,1.96,4.41,5.89,4.41,2.56,0,4.36-.35,5.39-1.06,1.03-.71,1.55-1.83,1.55-3.35s-.53-2.67-1.59-3.27c-1.06-.6-2.88-.9-5.44-.9-1.85,0-3.28.3-4.29.9-1.01.6-1.51,1.69-1.51,3.27Z"/>
    <path class="cls-1" d="M315.82,41.77c0-4.3.86-8.09,2.57-11.36s4.17-5.83,7.36-7.68c3.19-1.85,6.99-2.78,11.4-2.78,3.43,0,6.52.63,9.28,1.88,2.75,1.25,4.92,2.93,6.5,5.03,1.58,2.1,2.37,4.4,2.37,6.91s-.76,4.47-2.29,5.56c-1.53,1.09-3.79,1.63-6.78,1.63h-17.16c0,1.42.56,2.59,1.68,3.51,1.12.93,3.01,1.39,5.68,1.39,1.36,0,2.63-.14,3.8-.41,1.17-.27,2.37-.53,3.6-.78s2.6-.37,4.13-.37c2.18,0,3.98.78,5.39,2.33,1.42,1.55,2.12,3.69,2.12,6.42,0,3.22-1.65,5.72-4.94,7.52-3.3,1.8-7.62,2.7-12.96,2.7-3.76,0-7.29-.74-10.58-2.21-3.3-1.47-5.98-3.8-8.05-6.99-2.07-3.19-3.11-7.29-3.11-12.3ZM342.3,38.25c.82,0,1.09-.38.82-1.14-.22-.76-.87-1.55-1.96-2.37-1.09-.82-2.67-1.23-4.74-1.23-2.4,0-4.18.52-5.35,1.55-1.17,1.04-1.76,2.1-1.76,3.19h13Z"/>
    <path class="cls-1" d="M379.73,64.08c-3.76,0-7.23-.37-10.42-1.1-3.19-.74-5.74-1.91-7.64-3.51-1.91-1.61-2.86-3.75-2.86-6.42,0-2.34.71-4.28,2.12-5.8,1.42-1.53,3.3-2.29,5.64-2.29,1.47,0,2.96.23,4.45.7,1.5.46,3.09.91,4.78,1.35,1.69.44,3.51.65,5.48.65,1.74,0,2.91-.09,3.51-.29.6-.19.9-.56.9-1.1,0-.65-.37-1.09-1.1-1.31-.74-.22-1.98-.49-3.72-.82l-5.88-1.14c-2.45-.49-4.84-1.13-7.15-1.92-2.32-.79-4.22-1.97-5.72-3.56-1.5-1.58-2.25-3.73-2.25-6.46,0-3.71,1.65-6.59,4.94-8.66,3.3-2.07,8.08-3.11,14.34-3.11,3.6,0,6.82.36,9.69,1.06s5.14,1.76,6.83,3.15c1.69,1.39,2.53,3.12,2.53,5.19.05,2.23-.55,4.03-1.8,5.39-1.25,1.36-2.83,2.04-4.74,2.04-1.36,0-2.74-.18-4.13-.53-1.39-.35-2.89-.74-4.5-1.14-1.61-.41-3.45-.64-5.52-.69-1.47-.11-2.67-.03-3.6.25-.93.27-1.39.71-1.39,1.31,0,.65.54,1.1,1.63,1.35,1.09.25,2.72.56,4.9.94l5.8,1.06c3.54.6,6.36,1.35,8.46,2.25,2.1.9,3.61,2.14,4.54,3.72.93,1.58,1.39,3.76,1.39,6.54s-.83,5.3-2.49,7.23c-1.66,1.94-3.96,3.37-6.91,4.29-2.94.93-6.32,1.39-10.14,1.39Z"/>
    <path class="cls-1" d="M415.86,30c-3.22,0-5.72-.86-7.52-2.58-1.8-1.72-2.7-3.99-2.7-6.82s.91-5.23,2.74-7.03c1.82-1.8,4.32-2.7,7.48-2.7s5.48.89,7.27,2.66c1.8,1.77,2.7,4.1,2.7,6.99s-.87,5.12-2.62,6.87c-1.74,1.75-4.2,2.62-7.36,2.62ZM405.64,51.49c0-2.89.91-5.23,2.74-7.03,1.82-1.8,4.32-2.7,7.48-2.7s5.48.89,7.27,2.66c1.8,1.77,2.7,4.1,2.7,6.99s-.87,5.12-2.62,6.87c-1.74,1.74-4.2,2.62-7.36,2.62s-5.72-.86-7.52-2.57c-1.8-1.72-2.7-3.99-2.7-6.83Z"/>
  </g>
</svg>