<?xml version="1.0" encoding="UTF-8"?>
<svg id="Layer_2" data-name="Layer 2" xmlns="http://www.w3.org/2000/svg" viewBox="0 0 364.29 60.4">
  <defs>
    <style>
      .cls-1 {
        fill: #52bce3;
        stroke-width: 0px;
      }
    </style>
  </defs>
  <g id="Layer_1-2" data-name="Layer 1">
    <g>
      <path class="cls-1" d="M9.4,59.34c-2.67,0-4.78-.74-6.33-2.21-1.55-1.47-2.33-3.62-2.33-6.46v-11.52c0-5.78.87-10.16,2.62-13.16,1.74-3,3.95-5.15,6.62-6.46l-.41-1.55h-1.39c-2.51,0-4.48-.8-5.93-2.41C.81,13.96.06,11.77,0,8.99c-.05-2.72.67-4.9,2.17-6.54C3.67.82,5.67,0,8.18,0h28.61c5.83,0,8.75,2.73,8.75,8.17,0,2.45-.71,4.41-2.12,5.88-1.42,1.47-3.62,2.21-6.62,2.21h-15.94c-2.02,0-3.02,1.17-3.02,3.51v5.88c2.56-.71,5.23-1.52,8.01-2.45,2.78-.93,5.45-1.39,8.01-1.39,2.72,0,4.83.67,6.33,2,1.5,1.34,2.25,3.37,2.25,6.09s-.75,4.67-2.25,6.01c-1.5,1.34-3.61,2.03-6.33,2.08-2.56.06-5.25-.37-8.05-1.27-2.81-.9-5.49-1.7-8.05-2.41l-.08,16.35c0,2.83-.75,4.99-2.25,6.46-1.5,1.47-3.5,2.21-6.01,2.21Z"/>
      <path class="cls-1" d="M44.39,38.09c0-4.3.86-8.09,2.57-11.36s4.17-5.83,7.36-7.68c3.19-1.85,6.99-2.78,11.4-2.78,3.43,0,6.52.63,9.28,1.88,2.75,1.25,4.92,2.93,6.5,5.03,1.58,2.1,2.37,4.4,2.37,6.91s-.76,4.47-2.29,5.56c-1.53,1.09-3.79,1.63-6.78,1.63h-17.16c0,1.42.56,2.59,1.68,3.51,1.12.93,3.01,1.39,5.68,1.39,1.36,0,2.63-.14,3.8-.41,1.17-.27,2.37-.53,3.6-.78s2.6-.37,4.13-.37c2.18,0,3.98.78,5.39,2.33,1.42,1.55,2.12,3.69,2.12,6.42,0,3.22-1.65,5.72-4.94,7.52-3.3,1.8-7.62,2.7-12.96,2.7-3.76,0-7.29-.74-10.58-2.21-3.3-1.47-5.98-3.8-8.05-6.99-2.07-3.19-3.11-7.29-3.11-12.3ZM70.87,34.57c.82,0,1.09-.38.82-1.14-.22-.76-.87-1.55-1.96-2.37-1.09-.82-2.67-1.23-4.74-1.23-2.4,0-4.18.52-5.35,1.55-1.17,1.04-1.76,2.1-1.76,3.19h13Z"/>
      <path class="cls-1" d="M99.8,59.34c-4.03,0-7.18-1.09-9.44-3.27-2.26-2.18-3.39-5.23-3.39-9.15s1.31-6.77,3.92-8.54c2.62-1.77,5.97-2.66,10.05-2.66,2.4,0,4.58.16,6.54.49,1.96.33,3.73.79,5.31,1.39h.25v-1.23c0-1.25-.46-2.25-1.39-2.98-.93-.74-2.1-1.08-3.51-1.02-1.36,0-2.52.08-3.47.25-.95.16-2.14.44-3.56.82-2.62.65-4.88.6-6.78-.16-1.91-.76-3.22-2.26-3.92-4.5-.65-2.34-.5-4.3.45-5.89.95-1.58,2.41-2.81,4.37-3.68,1.69-.82,3.58-1.5,5.68-2.04,2.1-.54,4.37-.82,6.82-.82,7.14,0,12.38,1.73,15.73,5.19,3.35,3.46,5.03,9.25,5.03,17.37v12.67c0,2.24-.68,4.09-2.04,5.56-1.36,1.47-3.24,2.21-5.64,2.21-2.62,0-4.56-.74-5.84-2.21-1.28-1.47-1.92-3.27-1.92-5.39v-1.88h-1.63c0,1.42-.26,2.86-.78,4.33-.52,1.47-1.58,2.7-3.19,3.68-1.61.98-4.16,1.47-7.64,1.47ZM100.62,41.44c0,.93.34,1.58,1.02,1.96.68.38,2.17.57,4.45.57,2.07,0,3.51-.19,4.33-.57.82-.38,1.23-1.03,1.23-1.96,0-.87-.41-1.48-1.23-1.84-.82-.35-2.26-.53-4.33-.53-2.29,0-3.77.18-4.45.53-.68.36-1.02.97-1.02,1.84Z"/>
      <path class="cls-1" d="M153.75,59.58c-2.89,0-5.49-.65-7.81-1.96-2.32-1.31-4.13-3.17-5.44-5.6-1.31-2.42-1.96-5.27-1.96-8.54v-14.39l-3.02.41c-1.63.22-3.08-.35-4.33-1.72-1.25-1.36-1.88-3.08-1.88-5.15s.63-3.77,1.88-5.11c1.25-1.33,2.7-1.89,4.33-1.67l3.02.41-.08-5.56c-.05-2.18.57-3.91,1.88-5.19,1.31-1.28,3.21-1.92,5.72-1.92s4.44.64,5.8,1.92c1.36,1.28,1.99,3.01,1.88,5.19l-.16,5.56,4.33-.57c2.94-.44,5.18.1,6.7,1.59,1.52,1.5,2.29,3.28,2.29,5.35s-.75,3.86-2.25,5.35c-1.5,1.5-3.67,2.06-6.5,1.67l-4.58-.57v12.18c0,.71.25,1.35.74,1.92.49.57,1.09.75,1.8.53.82-.22,1.68-.68,2.57-1.39.9-.71,2.06-1.06,3.47-1.06,2.13,0,3.76.76,4.9,2.29,1.14,1.53,1.72,3.41,1.72,5.64,0,1.74-.61,3.42-1.84,5.03-1.23,1.61-2.96,2.9-5.19,3.88-2.23.98-4.9,1.47-8.01,1.47Z"/>
      <path class="cls-1" d="M185.54,59.34c-3.81,0-6.92-1.44-9.32-4.33-2.4-2.89-3.62-6.95-3.68-12.18l-.08-18.88c0-2.34.72-4.18,2.17-5.52,1.44-1.33,3.42-2,5.93-2s4.33.67,5.8,2c1.47,1.34,2.21,3.17,2.21,5.52v17.08c0,4.09,1.61,6.13,4.82,6.13,1.58,0,2.64-.58,3.19-1.76.54-1.17.82-2.68.82-4.54v-16.92c0-2.13.74-3.91,2.21-5.35,1.47-1.44,3.38-2.17,5.72-2.17s4.34.72,5.68,2.17c1.33,1.44,2,3.23,2,5.35v26.81c0,2.62-.59,4.7-1.76,6.25-1.17,1.55-3.06,2.33-5.68,2.33s-4.56-.78-6.01-2.33c-1.44-1.55-2.17-3.64-2.17-6.25v-1.39h-1.47c0,3.16-.94,5.61-2.82,7.36-1.88,1.74-4.4,2.62-7.56,2.62Z"/>
      <path class="cls-1" d="M225.35,59.34c-2.56,0-4.55-.74-5.97-2.21-1.42-1.47-2.12-3.32-2.12-5.56v-26.81c0-2.34.71-4.29,2.12-5.84,1.42-1.55,3.4-2.33,5.97-2.33s4.52.78,5.88,2.33c1.36,1.55,2.04,3.45,2.04,5.68v1.72h1.55c.22-2.89,1.31-5.26,3.27-7.11,1.96-1.85,4.28-2.78,6.95-2.78s4.78.82,6.33,2.45c1.55,1.63,2.33,3.82,2.33,6.54,0,2.56-.74,4.69-2.21,6.38-1.47,1.69-3.35,2.53-5.64,2.53-1.91,0-3.5-.45-4.78-1.35-1.28-.9-2.22-1.95-2.82-3.15-1.74-.22-3.01-.04-3.8.53-.79.57-1.19,1.7-1.19,3.39v17.82c0,2.24-.68,4.09-2.04,5.56-1.36,1.47-3.32,2.21-5.88,2.21Z"/>
      <path class="cls-1" d="M254.28,38.09c0-4.3.86-8.09,2.57-11.36s4.17-5.83,7.36-7.68c3.19-1.85,6.99-2.78,11.4-2.78,3.43,0,6.52.63,9.28,1.88,2.75,1.25,4.92,2.93,6.5,5.03,1.58,2.1,2.37,4.4,2.37,6.91s-.76,4.47-2.29,5.56c-1.53,1.09-3.79,1.63-6.78,1.63h-17.16c0,1.42.56,2.59,1.68,3.51,1.12.93,3.01,1.39,5.68,1.39,1.36,0,2.63-.14,3.8-.41,1.17-.27,2.37-.53,3.6-.78s2.6-.37,4.13-.37c2.18,0,3.98.78,5.39,2.33,1.42,1.55,2.12,3.69,2.12,6.42,0,3.22-1.65,5.72-4.94,7.52-3.3,1.8-7.62,2.7-12.96,2.7-3.76,0-7.29-.74-10.58-2.21-3.3-1.47-5.98-3.8-8.05-6.99-2.07-3.19-3.11-7.29-3.11-12.3ZM280.76,34.57c.82,0,1.09-.38.82-1.14-.22-.76-.87-1.55-1.96-2.37-1.09-.82-2.67-1.23-4.74-1.23-2.4,0-4.18.52-5.35,1.55-1.17,1.04-1.76,2.1-1.76,3.19h13Z"/>
      <path class="cls-1" d="M318.19,60.4c-3.76,0-7.23-.37-10.42-1.1-3.19-.74-5.74-1.91-7.64-3.51-1.91-1.61-2.86-3.75-2.86-6.42,0-2.34.71-4.28,2.12-5.8,1.42-1.53,3.3-2.29,5.64-2.29,1.47,0,2.96.23,4.45.7,1.5.46,3.09.91,4.78,1.35,1.69.44,3.51.65,5.48.65,1.74,0,2.91-.09,3.51-.29.6-.19.9-.56.9-1.1,0-.65-.37-1.09-1.1-1.31-.74-.22-1.98-.49-3.72-.82l-5.88-1.14c-2.45-.49-4.84-1.13-7.15-1.92-2.32-.79-4.22-1.97-5.72-3.56-1.5-1.58-2.25-3.73-2.25-6.46,0-3.71,1.65-6.59,4.94-8.66,3.3-2.07,8.08-3.11,14.34-3.11,3.6,0,6.82.36,9.69,1.06s5.14,1.76,6.83,3.15c1.69,1.39,2.53,3.12,2.53,5.19.05,2.23-.55,4.03-1.8,5.39-1.25,1.36-2.83,2.04-4.74,2.04-1.36,0-2.74-.18-4.13-.53-1.39-.35-2.89-.74-4.5-1.14-1.61-.41-3.45-.64-5.52-.69-1.47-.11-2.67-.03-3.6.25-.93.27-1.39.71-1.39,1.31,0,.65.54,1.1,1.63,1.35,1.09.25,2.72.56,4.9.94l5.8,1.06c3.54.6,6.36,1.35,8.46,2.25,2.1.9,3.61,2.14,4.54,3.72.93,1.58,1.39,3.76,1.39,6.54s-.83,5.3-2.49,7.23c-1.66,1.94-3.96,3.37-6.91,4.29-2.94.93-6.32,1.39-10.14,1.39Z"/>
      <path class="cls-1" d="M354.32,26.32c-3.22,0-5.72-.86-7.52-2.58-1.8-1.72-2.7-3.99-2.7-6.82s.91-5.23,2.74-7.03c1.82-1.8,4.32-2.7,7.48-2.7s5.48.89,7.27,2.66c1.8,1.77,2.7,4.1,2.7,6.99s-.87,5.12-2.62,6.87c-1.74,1.75-4.2,2.62-7.36,2.62ZM344.1,47.82c0-2.89.91-5.23,2.74-7.03,1.82-1.8,4.32-2.7,7.48-2.7s5.48.89,7.27,2.66c1.8,1.77,2.7,4.1,2.7,6.99s-.87,5.12-2.62,6.87c-1.74,1.74-4.2,2.62-7.36,2.62s-5.72-.86-7.52-2.57c-1.8-1.72-2.7-3.99-2.7-6.83Z"/>
    </g>
  </g>
</svg>