<?xml version="1.0" encoding="UTF-8"?>
<svg id="Layer_2" data-name="Layer 2" xmlns="http://www.w3.org/2000/svg" viewBox="0 0 441.94 61.06">
  <defs>
    <style>
      .cls-1 {
        fill: #52bce3;
        stroke-width: 0px;
      }
    </style>
  </defs>
  <g id="Layer_1-2" data-name="Layer 1">
    <g>
      <path class="cls-1" d="M8.66,59.75c-2.51,0-4.58-.76-6.21-2.29-1.63-1.52-2.45-3.46-2.45-5.8V8.42c0-2.4.79-4.4,2.37-6.01C3.95.8,6.02,0,8.58,0c2.72,0,4.85.8,6.38,2.41,1.52,1.61,2.29,3.56,2.29,5.84v15.12h15.2v-14.96c0-2.4.79-4.4,2.37-6.01,1.58-1.61,3.71-2.41,6.38-2.41s4.77.8,6.29,2.41c1.52,1.61,2.29,3.56,2.29,5.84v43.4c0,2.34-.8,4.28-2.41,5.8-1.61,1.53-3.61,2.29-6.01,2.29-2.62,0-4.75-.76-6.42-2.29-1.66-1.52-2.49-3.46-2.49-5.8v-16.27h-15.2v16.27c0,2.34-.8,4.28-2.41,5.8-1.61,1.53-3.67,2.29-6.17,2.29Z"/>
      <path class="cls-1" d="M75.11,60.16c-6.38,0-11.46-1.89-15.24-5.68-3.79-3.79-5.68-9.14-5.68-16.06,0-4.25.87-7.98,2.62-11.2,1.74-3.21,4.18-5.73,7.31-7.56,3.13-1.82,6.8-2.74,10.99-2.74,4.69,0,8.58.91,11.69,2.74,3.11,1.83,5.44,4.35,6.99,7.56,1.55,3.22,2.33,6.95,2.33,11.2,0,6.92-1.73,12.27-5.19,16.06-3.46,3.79-8.73,5.68-15.82,5.68ZM63.92,37.03c0,1.69.84,2.88,2.53,3.56,1.69.68,4.58,1.02,8.66,1.02s6.97-.34,8.66-1.02c1.69-.68,2.53-1.87,2.53-3.56s-.85-2.78-2.53-3.43c-1.69-.65-4.58-.98-8.66-.98s-6.98.33-8.66.98c-1.69.65-2.53,1.8-2.53,3.43Z"/>
      <path class="cls-1" d="M116.15,59.99c-3.16,0-5.74-1.04-7.72-3.11-1.99-2.07-3.8-5.48-5.44-10.22l-6.21-18.47c-.71-2.07-.74-4.17-.08-6.29s2.15-3.57,4.5-4.33c2.18-.76,4.17-.71,5.97.16,1.8.87,3.05,2.37,3.76,4.5l6.7,20.03c.76,2.34,1.55,3.91,2.37,4.7.82.79,1.91.97,3.27.53,1.14-.38,1.87-1.21,2.17-2.49.3-1.28-.1-3.5-1.19-6.66l-3.35-10.13c-.71-2.12-.72-4.24-.04-6.33.68-2.1,2.19-3.53,4.54-4.29,2.18-.76,4.17-.71,5.97.16,1.8.87,3.05,2.37,3.76,4.5l6.87,20.92c.44,1.25,1.12,2.4,2.04,3.43.93,1.04,2.12,1.34,3.6.9,1.14-.38,1.89-1.14,2.25-2.29.35-1.14.29-2.48-.2-4.01-.65-2.07-1.38-3.7-2.17-4.9-.79-1.2-1.55-2.23-2.29-3.11-.74-.87-1.34-1.8-1.8-2.78-.46-.98-.75-2.32-.86-4.01-.11-1.74.26-3.28,1.1-4.62.84-1.33,1.99-2.38,3.43-3.15,1.44-.76,3.04-1.14,4.78-1.14,2.67,0,4.83.89,6.5,2.66,1.66,1.77,2.49,3.86,2.49,6.25,0,.87-.14,2.02-.41,3.43-.27,1.42-.63,2.72-1.06,3.92l-3.43,8.91c-.71,1.96-1.51,3.96-2.41,6.01-.9,2.04-1.93,3.91-3.11,5.6-1.17,1.69-2.52,3.07-4.05,4.13-1.53,1.06-3.3,1.59-5.31,1.59-3.49,0-6.28-.9-8.38-2.7-2.1-1.8-3.75-4.77-4.95-8.91h-.82c-.71,3.38-1.88,6.16-3.51,8.34-1.63,2.18-4.06,3.27-7.27,3.27Z"/>
      <path class="cls-1" d="M202.62,60.24c-2.89,0-5.49-.65-7.81-1.96-2.32-1.31-4.13-3.17-5.44-5.6-1.31-2.42-1.96-5.27-1.96-8.54v-14.39l-3.02.41c-1.63.22-3.08-.35-4.33-1.72-1.25-1.36-1.88-3.08-1.88-5.15s.63-3.77,1.88-5.11c1.25-1.33,2.7-1.89,4.33-1.68l3.02.41-.08-5.56c-.05-2.18.57-3.91,1.88-5.19,1.31-1.28,3.21-1.92,5.72-1.92s4.44.64,5.8,1.92c1.36,1.28,1.99,3.01,1.88,5.19l-.16,5.56,4.33-.57c2.94-.44,5.18.1,6.7,1.59,1.52,1.5,2.29,3.28,2.29,5.35s-.75,3.86-2.25,5.35c-1.5,1.5-3.67,2.06-6.5,1.68l-4.58-.57v12.18c0,.71.25,1.35.74,1.92.49.57,1.09.75,1.8.53.82-.22,1.68-.68,2.57-1.39.9-.71,2.06-1.06,3.47-1.06,2.13,0,3.76.76,4.9,2.29,1.14,1.53,1.72,3.41,1.72,5.64,0,1.75-.61,3.42-1.84,5.03-1.23,1.61-2.96,2.9-5.19,3.88-2.23.98-4.9,1.47-8.01,1.47Z"/>
      <path class="cls-1" d="M239.48,60.16c-6.38,0-11.46-1.89-15.24-5.68-3.79-3.79-5.68-9.14-5.68-16.06,0-4.25.87-7.98,2.62-11.2,1.74-3.21,4.18-5.73,7.31-7.56,3.13-1.82,6.8-2.74,10.99-2.74,4.69,0,8.58.91,11.69,2.74,3.11,1.83,5.44,4.35,6.99,7.56,1.55,3.22,2.33,6.95,2.33,11.2,0,6.92-1.73,12.27-5.19,16.06-3.46,3.79-8.73,5.68-15.82,5.68ZM228.28,37.03c0,1.69.84,2.88,2.53,3.56,1.69.68,4.58,1.02,8.66,1.02s6.97-.34,8.66-1.02c1.69-.68,2.53-1.87,2.53-3.56s-.85-2.78-2.53-3.43c-1.69-.65-4.58-.98-8.66-.98s-6.98.33-8.66.98c-1.69.65-2.53,1.8-2.53,3.43Z"/>
      <path class="cls-1" d="M304.46,60.24c-3.27-.05-6.39-.49-9.36-1.31-2.97-.82-5.63-2.15-7.97-4-2.34-1.85-4.18-4.33-5.52-7.44-1.34-3.11-2-6.95-2-11.52V8.26c0-2.62.86-4.56,2.57-5.84,1.72-1.28,3.72-1.92,6.01-1.92s4.22.64,5.97,1.92c1.74,1.28,2.62,3.23,2.62,5.84v23.87c0,3.87.91,6.7,2.74,8.5,1.83,1.8,4.18,2.62,7.07,2.45,3.05-.22,5.24-1.39,6.58-3.51,1.33-2.13,1.7-4.96,1.1-8.5-.38-2.4-.8-4.41-1.27-6.05-.46-1.63-.93-3.09-1.39-4.37-.46-1.28-.86-2.56-1.19-3.84-.33-1.28-.57-2.79-.74-4.54-.33-3.65.42-6.53,2.25-8.62,1.82-2.1,4.24-3.15,7.23-3.15s5.34,1.01,7.03,3.02c1.69,2.02,2.53,5.07,2.53,9.15v23.29c0,4.58-.64,8.43-1.92,11.57-1.28,3.13-3.05,5.64-5.31,7.52-2.26,1.88-4.85,3.22-7.77,4-2.92.79-6.01,1.19-9.28,1.19Z"/>
      <path class="cls-1" d="M353.67,61.06c-3.76,0-7.23-.37-10.42-1.1s-5.74-1.91-7.64-3.51c-1.91-1.61-2.86-3.75-2.86-6.42,0-2.34.71-4.28,2.12-5.8,1.42-1.52,3.3-2.29,5.64-2.29,1.47,0,2.96.23,4.45.69,1.5.46,3.09.91,4.78,1.35,1.69.44,3.51.65,5.48.65,1.74,0,2.91-.09,3.51-.29.6-.19.9-.56.9-1.1,0-.65-.37-1.09-1.1-1.31-.74-.22-1.98-.49-3.72-.82l-5.88-1.14c-2.45-.49-4.84-1.13-7.15-1.92-2.32-.79-4.22-1.97-5.72-3.56-1.5-1.58-2.25-3.73-2.25-6.46,0-3.71,1.65-6.59,4.94-8.66,3.3-2.07,8.08-3.11,14.34-3.11,3.6,0,6.82.36,9.69,1.06,2.86.71,5.14,1.76,6.83,3.15,1.69,1.39,2.53,3.12,2.53,5.19.05,2.24-.55,4.03-1.8,5.39-1.25,1.36-2.83,2.04-4.74,2.04-1.36,0-2.74-.18-4.13-.53-1.39-.35-2.89-.74-4.5-1.14-1.61-.41-3.45-.64-5.52-.7-1.47-.11-2.67-.03-3.6.25-.93.27-1.39.71-1.39,1.31,0,.65.54,1.1,1.63,1.35,1.09.25,2.72.56,4.9.94l5.8,1.06c3.54.6,6.36,1.35,8.46,2.25,2.1.9,3.61,2.14,4.54,3.72.93,1.58,1.39,3.76,1.39,6.54s-.83,5.3-2.49,7.23c-1.66,1.93-3.96,3.37-6.91,4.29-2.94.93-6.32,1.39-10.14,1.39Z"/>
      <path class="cls-1" d="M376.06,38.74c0-4.3.86-8.09,2.57-11.36s4.17-5.83,7.36-7.68c3.19-1.85,6.99-2.78,11.4-2.78,3.43,0,6.52.63,9.28,1.88,2.75,1.25,4.92,2.93,6.5,5.03,1.58,2.1,2.37,4.4,2.37,6.91s-.76,4.47-2.29,5.56c-1.53,1.09-3.79,1.63-6.78,1.63h-17.16c0,1.42.56,2.59,1.68,3.51,1.12.93,3.01,1.39,5.68,1.39,1.36,0,2.63-.13,3.8-.41,1.17-.27,2.37-.53,3.6-.78s2.6-.37,4.13-.37c2.18,0,3.98.78,5.39,2.33,1.42,1.55,2.12,3.69,2.12,6.42,0,3.22-1.65,5.72-4.94,7.52-3.3,1.8-7.62,2.7-12.96,2.7-3.76,0-7.29-.74-10.58-2.21-3.3-1.47-5.98-3.8-8.05-6.99-2.07-3.19-3.11-7.29-3.11-12.3ZM402.54,35.23c.82,0,1.09-.38.82-1.14-.22-.76-.87-1.55-1.96-2.37-1.09-.82-2.67-1.23-4.74-1.23-2.4,0-4.18.52-5.35,1.55-1.17,1.04-1.76,2.1-1.76,3.19h13Z"/>
      <path class="cls-1" d="M431.97,26.97c-3.22,0-5.72-.86-7.52-2.57-1.8-1.72-2.7-3.99-2.7-6.83s.91-5.23,2.74-7.03c1.82-1.8,4.32-2.7,7.48-2.7s5.48.89,7.27,2.66c1.8,1.77,2.7,4.1,2.7,6.99s-.87,5.12-2.62,6.87c-1.74,1.74-4.2,2.62-7.36,2.62ZM421.75,48.47c0-2.89.91-5.23,2.74-7.03,1.82-1.8,4.32-2.7,7.48-2.7s5.48.89,7.27,2.66c1.8,1.77,2.7,4.1,2.7,6.99s-.87,5.12-2.62,6.87c-1.74,1.75-4.2,2.62-7.36,2.62s-5.72-.86-7.52-2.58c-1.8-1.72-2.7-3.99-2.7-6.82Z"/>
    </g>
  </g>
</svg>