<?xml version="1.0" encoding="UTF-8"?>
<svg id="Layer_2" data-name="Layer 2" xmlns="http://www.w3.org/2000/svg" viewBox="0 0 446.13 88.1">
  <defs>
    <style>
      .cls-1 {
        fill: #52bce3;
        stroke-width: 0px;
      }
    </style>
  </defs>
  <g id="Layer_1-2" data-name="Layer 1">
    <g>
      <path class="cls-1" d="M117.53,49.1l12.26-17.33c2.18-3.11,4.55-4.86,7.11-5.27,2.56-.41,4.88.2,6.95,1.84,1.36,1.04,2.26,2.42,2.7,4.17.44,1.74.3,3.6-.41,5.56-.71,1.96-2.12,3.81-4.25,5.56l-13.65,11.03v1.72c1.74,0,3.79.22,6.13.65,2.34.44,4.47,1.42,6.38,2.94,1.52,1.14,2.85,2.45,3.96,3.92,1.12,1.47,2,3.28,2.66,5.44.65,2.15.98,4.86.98,8.13,0,2.67-.72,4.81-2.17,6.42-1.44,1.61-3.58,2.41-6.42,2.41s-5-.8-6.5-2.41c-1.5-1.61-2.25-3.75-2.25-6.42,0-3-.48-5.38-1.43-7.15-.95-1.77-2.22-3.06-3.8-3.88-1.58-.82-3.3-1.23-5.15-1.23h-4v12.83c0,2.34-.8,4.28-2.41,5.8-1.61,1.53-3.67,2.29-6.17,2.29s-4.56-.76-6.17-2.29c-1.61-1.52-2.41-3.46-2.41-5.8v-43.24c0-2.4.79-4.41,2.37-6.05,1.58-1.63,3.65-2.45,6.21-2.45,2.72,0,4.84.8,6.33,2.41,1.5,1.61,2.25,3.58,2.25,5.93v14.3l.9.16Z"/>
      <path class="cls-1" d="M151.37,33.73c0-2.34.72-4.24,2.17-5.68s3.45-2.17,6.01-2.17c2.72,0,4.75.71,6.09,2.12,1.33,1.42,2,3.3,2,5.64s-.67,4.13-2,5.52c-1.34,1.39-3.37,2.08-6.09,2.08s-4.7-.69-6.09-2.08c-1.39-1.39-2.08-3.2-2.08-5.44ZM159.54,85.96c-2.56,0-4.47-.71-5.72-2.12-1.25-1.42-1.88-3.19-1.88-5.31v-27.95c0-2.34.63-4.2,1.88-5.56,1.25-1.36,3.16-2.04,5.72-2.04s4.48.68,5.76,2.04c1.28,1.36,1.92,3.16,1.92,5.39v28.12c0,2.12-.67,3.9-2,5.31-1.34,1.42-3.23,2.12-5.68,2.12Z"/>
      <path class="cls-1" d="M190.6,85.96c-3.16,0-5.74-1.03-7.72-3.11-1.99-2.07-3.8-5.48-5.44-10.22l-6.21-18.47c-.71-2.07-.74-4.17-.08-6.29.65-2.13,2.15-3.57,4.5-4.33,2.18-.76,4.17-.71,5.97.16,1.8.87,3.05,2.37,3.76,4.5l6.7,20.03c.76,2.34,1.55,3.91,2.37,4.7.82.79,1.91.97,3.27.53,1.14-.38,1.87-1.21,2.17-2.49.3-1.28-.1-3.5-1.19-6.66l-3.35-10.14c-.71-2.12-.72-4.24-.04-6.33.68-2.1,2.19-3.53,4.54-4.29,2.18-.76,4.17-.71,5.97.16,1.8.87,3.05,2.37,3.76,4.5l6.87,20.92c.44,1.25,1.12,2.4,2.04,3.43.93,1.04,2.12,1.34,3.6.9,1.14-.38,1.89-1.14,2.25-2.29.35-1.14.29-2.48-.2-4.01-.65-2.07-1.38-3.7-2.17-4.9-.79-1.2-1.55-2.23-2.29-3.11-.74-.87-1.34-1.8-1.8-2.78-.46-.98-.75-2.32-.86-4.01-.11-1.74.26-3.28,1.1-4.62.84-1.33,1.99-2.38,3.43-3.15,1.44-.76,3.04-1.14,4.78-1.14,2.67,0,4.83.89,6.5,2.66,1.66,1.77,2.49,3.86,2.49,6.25,0,.87-.14,2.02-.41,3.43-.27,1.42-.63,2.73-1.06,3.92l-3.43,8.91c-.71,1.96-1.51,3.96-2.41,6.01s-1.93,3.91-3.11,5.6c-1.17,1.69-2.52,3.07-4.05,4.13-1.53,1.06-3.3,1.59-5.31,1.59-3.49,0-6.28-.9-8.38-2.7-2.1-1.8-3.75-4.77-4.95-8.91h-.82c-.71,3.38-1.88,6.16-3.51,8.34-1.63,2.18-4.06,3.27-7.27,3.27Z"/>
      <path class="cls-1" d="M238.33,33.73c0-2.34.72-4.24,2.17-5.68s3.45-2.17,6.01-2.17c2.72,0,4.75.71,6.09,2.12,1.33,1.42,2,3.3,2,5.64s-.67,4.13-2,5.52c-1.34,1.39-3.37,2.08-6.09,2.08s-4.7-.69-6.09-2.08c-1.39-1.39-2.08-3.2-2.08-5.44ZM246.5,85.96c-2.56,0-4.47-.71-5.72-2.12-1.25-1.42-1.88-3.19-1.88-5.31v-27.95c0-2.34.63-4.2,1.88-5.56,1.25-1.36,3.16-2.04,5.72-2.04s4.48.68,5.76,2.04c1.28,1.36,1.92,3.16,1.92,5.39v28.12c0,2.12-.67,3.9-2,5.31-1.34,1.42-3.23,2.12-5.68,2.12Z"/>
      <path class="cls-1" d="M291.46,85.88c-2.51-.11-4.84-.46-6.99-1.06-2.15-.6-4.05-1.62-5.68-3.06-1.63-1.44-2.9-3.45-3.8-6.01-.9-2.56-1.35-5.83-1.35-9.81s.53-7.22,1.59-10.05c1.06-2.83,2.33-5.09,3.8-6.78,1.47-1.69,2.81-2.72,4-3.11l-.41-1.55h-1.39c-2.51,0-4.48-.8-5.93-2.41-1.44-1.61-2.19-3.77-2.25-6.5-.05-2.72.67-4.92,2.17-6.58,1.5-1.66,3.5-2.49,6.01-2.49h22.48c5.88,0,10.13,1.4,12.75,4.21,2.62,2.81,3.92,6.44,3.92,10.91,0,3.6-.83,6.59-2.49,8.99-1.66,2.4-4.16,3.84-7.48,4.33v1.23c3.6.16,6.52,1.4,8.79,3.72,2.26,2.32,3.39,5.74,3.39,10.26,0,4.9-1.42,8.79-4.25,11.65-2.83,2.86-7.49,4.26-13.98,4.21l-12.91-.08ZM289.25,49.18c0,1.2.22,1.99.65,2.37.44.38,1.25.57,2.45.57h7.52c2.07,0,3.65-.31,4.74-.94,1.09-.63,1.63-1.87,1.63-3.72s-.55-3.16-1.63-3.76c-1.09-.6-2.67-.9-4.74-.9h-7.52c-1.2,0-2.02.16-2.45.49-.44.33-.65,1.12-.65,2.37v3.51ZM289.25,65.61c0,1.2.23,2.02.69,2.45.46.44,1.32.65,2.57.65h8.42c2.13,0,3.76-.38,4.9-1.14,1.14-.76,1.72-2.12,1.72-4.09s-.57-3.31-1.72-4.05c-1.14-.74-2.78-1.1-4.9-1.1h-8.42c-1.25,0-2.11.19-2.57.57-.46.38-.69,1.17-.69,2.37v4.33Z"/>
      <path class="cls-1" d="M346.63,86.13c-6.38,0-11.46-1.89-15.24-5.68-3.79-3.79-5.68-9.14-5.68-16.06,0-4.25.87-7.98,2.62-11.2,1.74-3.21,4.18-5.73,7.31-7.56,3.13-1.82,6.8-2.74,10.99-2.74,4.69,0,8.58.91,11.69,2.74,3.11,1.83,5.44,4.35,6.99,7.56,1.55,3.22,2.33,6.95,2.33,11.2,0,6.92-1.73,12.27-5.19,16.06-3.46,3.79-8.73,5.68-15.82,5.68ZM335.43,63c0,1.69.84,2.88,2.53,3.56,1.69.68,4.58,1.02,8.66,1.02s6.97-.34,8.66-1.02c1.69-.68,2.53-1.87,2.53-3.56s-.85-2.78-2.53-3.43c-1.69-.65-4.58-.98-8.66-.98s-6.98.33-8.66.98c-1.69.65-2.53,1.8-2.53,3.43Z"/>
      <path class="cls-1" d="M391.26,86.21c-2.89,0-5.49-.65-7.81-1.96-2.32-1.31-4.13-3.17-5.44-5.6-1.31-2.42-1.96-5.27-1.96-8.54v-14.39l-3.02.41c-1.63.22-3.08-.35-4.33-1.72-1.25-1.36-1.88-3.08-1.88-5.15s.63-3.77,1.88-5.11c1.25-1.33,2.7-1.89,4.33-1.68l3.02.41-.08-5.56c-.05-2.18.57-3.91,1.88-5.19,1.31-1.28,3.21-1.92,5.72-1.92s4.44.64,5.8,1.92c1.36,1.28,1.99,3.01,1.88,5.19l-.16,5.56,4.33-.57c2.94-.44,5.18.1,6.7,1.59,1.52,1.5,2.29,3.28,2.29,5.35s-.75,3.86-2.25,5.35c-1.5,1.5-3.67,2.06-6.5,1.68l-4.58-.57v12.18c0,.71.25,1.35.74,1.92.49.57,1.09.75,1.8.53.82-.22,1.68-.68,2.57-1.39.9-.71,2.06-1.06,3.47-1.06,2.13,0,3.76.76,4.9,2.29,1.14,1.53,1.72,3.41,1.72,5.64,0,1.74-.61,3.42-1.84,5.03-1.23,1.61-2.96,2.9-5.19,3.88-2.23.98-4.9,1.47-8.01,1.47Z"/>
    </g>
    <g>
      <path class="cls-1" d="M409.41,25.96c-1.15,0-2.05-.35-2.68-1.06-.63-.71-.95-1.58-.95-2.61v-12.63h-.71c-.17.54-.52,1.02-1.06,1.45-.54.42-1.22.64-2.05.64-.89,0-1.68-.3-2.35-.9-.67-.6-1.01-1.44-1.01-2.52,0-.82.19-1.52.56-2.08.38-.56.86-1.12,1.45-1.66l2.57-2.29c.89-.8,1.73-1.38,2.5-1.75.78-.36,1.67-.55,2.68-.55.82,0,1.59.18,2.29.53.71.35,1.27.9,1.71,1.64.44.74.65,1.71.65,2.91v17.21c0,1.03-.31,1.9-.92,2.61-.61.71-1.52,1.06-2.72,1.06Z"/>
      <path class="cls-1" d="M419.92,26.56c-1.39,0-2.47-.37-3.25-1.11s-1.16-1.72-1.16-2.95.4-2.26,1.2-3.03c.8-.78,1.87-1.16,3.21-1.16s2.37.38,3.16,1.15c.79.76,1.18,1.77,1.18,3.02s-.38,2.21-1.13,2.96c-.75.75-1.82,1.13-3.21,1.13Z"/>
      <path class="cls-1" d="M436.04,26c-2.35,0-4.27-.53-5.75-1.59s-2.57-2.56-3.26-4.51c-.69-1.95-1.04-4.24-1.04-6.88s.37-4.92,1.11-6.86,1.85-3.45,3.33-4.53,3.35-1.62,5.61-1.62,4.13.54,5.63,1.62c1.49,1.08,2.61,2.59,3.35,4.53s1.11,4.23,1.11,6.86-.35,4.93-1.04,6.88c-.69,1.95-1.78,3.46-3.26,4.51s-3.41,1.59-5.78,1.59ZM429.94,12.52c0,.73.16,1.42.48,2.06.32.65.92,1.16,1.8,1.55.88.39,2.16.58,3.83.58s2.98-.19,3.86-.58c.88-.39,1.48-.9,1.8-1.55.32-.65.48-1.33.48-2.06s-.16-1.43-.48-2.03-.92-1.08-1.8-1.45-2.17-.55-3.86-.55-2.95.18-3.83.55-1.48.85-1.8,1.45-.48,1.28-.48,2.03Z"/>
    </g>
    <path class="cls-1" d="M79.58,42.29c-.54-2.86-1.33-5.62-2.34-8.24-1.02-2.63-2.26-5.12-3.71-7.46-1.44-2.34-3.09-4.51-4.91-6.5-1.82-1.99-3.81-3.78-5.95-5.36-2.14-1.58-4.42-2.94-6.83-4.05s-4.93-1.97-7.55-2.56c-2.62-.58-5.33-.89-8.1-.89h0c-2.78,0-5.48.31-8.1.89-2.62.58-5.14,1.45-7.55,2.56-2.4,1.11-4.69,2.47-6.83,4.05-2.14,1.58-4.13,3.38-5.95,5.36-1.82,1.99-3.46,4.16-4.91,6.5s-2.69,4.83-3.71,7.46-1.81,5.38-2.34,8.24c-.54,2.86-.82,5.82-.82,8.85v32.13c0,2.54,1.88,4.59,4.2,4.59,1.39.23,3.45.41,5.85,0,5.33-.91,6.28-3.7,10.07-3.9,4.66-.24,5.18,3.88,10.03,3.9,4.75.01,5.42-3.94,10.15-3.9,4.67.04,5.3,3.91,9.95,3.9,4.76-.01,5.24-4.07,9.86-3.9,3.83.14,4.85,2.98,10.24,3.9,2.48.42,4.56.21,5.85,0,2.32,0,4.2-2.06,4.2-4.59v-32.13c0-3.03-.28-5.99-.82-8.85ZM30.99,40.29c-1.5,5.76-6.75,9.38-11.73,8.08s-7.8-7.02-6.29-12.78c1.5-5.76,6.75-9.38,11.73-8.08,4.98,1.3,7.8,7.02,6.29,12.78ZM40.08,57.21c-3.86,0-6.99-3.14-6.99-6.99,0-.68.55-1.23,1.23-1.23s1.23.55,1.23,1.23c0,2.49,2.03,4.52,4.52,4.52s4.52-2.03,4.52-4.52c0-.68.55-1.23,1.23-1.23s1.23.55,1.23,1.23c0,3.86-3.14,6.99-6.99,6.99ZM61.14,48.37c-4.98,1.3-10.23-2.32-11.73-8.08-1.5-5.76,1.32-11.48,6.29-12.78,4.98-1.3,10.23,2.32,11.73,8.08,1.5,5.76-1.32,11.48-6.29,12.78Z"/>
  </g>
</svg>