<?xml version="1.0" encoding="UTF-8"?>
<svg id="Layer_2" data-name="Layer 2" xmlns="http://www.w3.org/2000/svg" viewBox="0 0 502.17 79.85">
  <defs>
    <style>
      .cls-1 {
        fill: #52bce3;
        stroke-width: 0px;
      }
    </style>
  </defs>
  <g id="Layer_1-2" data-name="Layer 1">
    <g>
      <path class="cls-1" d="M9.24,21.66c-2.73,0-4.94-.79-6.66-2.37-1.72-1.58-2.57-3.76-2.57-6.54s.78-4.92,2.33-6.58c1.55-1.66,3.85-2.49,6.91-2.49h35.23c3.05,0,5.35.83,6.91,2.49,1.55,1.66,2.33,3.86,2.33,6.58s-.86,4.96-2.57,6.54c-1.72,1.58-3.94,2.37-6.66,2.37-1.85,0-3.34-.2-4.45-.61-1.12-.41-2.03-.9-2.74-1.47-.71-.57-1.39-1.06-2.04-1.47-.65-.41-1.47-.61-2.45-.61l-.74,1.47c.22.49.6,1.19,1.14,2.08.54.9,1.06,2.18,1.55,3.84.49,1.66.74,3.91.74,6.74v23.62c0,2.23-.83,4.09-2.49,5.56-1.66,1.47-3.69,2.21-6.09,2.21s-4.51-.74-6.17-2.21c-1.66-1.47-2.49-3.32-2.49-5.56v-23.62c0-2.83.25-5.08.74-6.74.49-1.66,1.02-2.94,1.59-3.84.57-.9.97-1.59,1.19-2.08l-.82-1.47c-.98,0-1.8.2-2.45.61-.65.41-1.34.9-2.04,1.47-.71.57-1.61,1.06-2.7,1.47-1.09.41-2.59.61-4.5.61Z"/>
      <path class="cls-1" d="M42.42,41.77c0-4.3.86-8.09,2.57-11.36s4.17-5.83,7.36-7.68c3.19-1.85,6.99-2.78,11.4-2.78,3.43,0,6.52.63,9.28,1.88,2.75,1.25,4.92,2.93,6.5,5.03,1.58,2.1,2.37,4.4,2.37,6.91s-.76,4.47-2.29,5.56c-1.53,1.09-3.79,1.63-6.78,1.63h-17.16c0,1.42.56,2.59,1.68,3.51,1.12.93,3.01,1.39,5.68,1.39,1.36,0,2.63-.13,3.8-.41,1.17-.27,2.37-.53,3.6-.78s2.6-.37,4.13-.37c2.18,0,3.98.78,5.39,2.33,1.42,1.55,2.12,3.69,2.12,6.42,0,3.22-1.65,5.72-4.94,7.52-3.3,1.8-7.62,2.7-12.96,2.7-3.76,0-7.29-.74-10.58-2.21-3.3-1.47-5.98-3.8-8.05-6.99-2.07-3.19-3.11-7.29-3.11-12.3ZM68.9,38.25c.82,0,1.09-.38.82-1.14-.22-.76-.87-1.55-1.96-2.37-1.09-.82-2.67-1.23-4.74-1.23-2.4,0-4.18.52-5.35,1.55-1.17,1.04-1.76,2.1-1.76,3.19h13Z"/>
      <path class="cls-1" d="M105.93,63.26c-4.25,0-8.01-.88-11.28-2.66-3.27-1.77-5.83-4.29-7.68-7.56-1.85-3.27-2.78-7.11-2.78-11.53s.93-8.25,2.78-11.52c1.85-3.27,4.43-5.8,7.72-7.6,3.3-1.8,7.1-2.7,11.4-2.7,3.38,0,6.36.36,8.95,1.06,2.59.71,4.63,1.77,6.13,3.19,1.5,1.42,2.25,3.19,2.25,5.31,0,2.56-.65,4.56-1.96,6.01-1.31,1.44-3.19,2.17-5.64,2.17-1.63,0-3.26-.25-4.86-.74-1.61-.49-3.67-.74-6.17-.74-2.07,0-3.81.33-5.23.98-1.42.65-2.12,1.85-2.12,3.6s.71,3.09,2.12,3.88c1.42.79,3.16,1.18,5.23,1.18,1.69,0,3.11-.16,4.25-.49,1.14-.33,2.23-.65,3.27-.98,1.03-.33,2.21-.49,3.51-.49,2.78,0,4.84.8,6.17,2.41,1.33,1.61,2,3.67,2,6.17,0,2.12-.79,4.02-2.37,5.68-1.58,1.66-3.73,2.97-6.46,3.92-2.73.95-5.8,1.43-9.24,1.43Z"/>
      <path class="cls-1" d="M135.02,63.02c-2.4,0-4.29-.72-5.68-2.17-1.39-1.44-2.08-3.23-2.08-5.35V8.17c0-2.29.69-4.22,2.08-5.8,1.39-1.58,3.36-2.37,5.93-2.37s4.4.79,5.68,2.37c1.28,1.58,1.92,3.54,1.92,5.88v24.44h1.47c0-3.11.56-5.56,1.68-7.36,1.12-1.8,2.56-3.09,4.33-3.88,1.77-.79,3.58-1.19,5.44-1.19,3.27,0,5.76.8,7.48,2.41,1.72,1.61,2.89,3.75,3.51,6.42.63,2.67.94,5.59.94,8.75v17.66c0,2.23-.72,4.05-2.17,5.43-1.44,1.39-3.37,2.08-5.76,2.08s-4.39-.7-5.8-2.08c-1.42-1.39-2.12-3.2-2.12-5.43v-14.47c0-1.96-.38-3.49-1.14-4.58-.76-1.09-1.88-1.63-3.35-1.63s-2.59.6-3.35,1.8c-.76,1.2-1.14,2.72-1.14,4.58v14.3c0,2.12-.69,3.91-2.08,5.35-1.39,1.44-3.31,2.17-5.76,2.17Z"/>
      <path class="cls-1" d="M179.9,63.02c-2.4,0-4.32-.72-5.76-2.17-1.44-1.44-2.17-3.23-2.17-5.35v-27.05c0-2.29.68-4.22,2.04-5.8,1.36-1.58,3.32-2.37,5.89-2.37s4.41.79,5.72,2.37c1.31,1.58,1.96,3.57,1.96,5.97v4.09h1.47c0-3.11.56-5.56,1.68-7.36,1.12-1.8,2.55-3.09,4.29-3.88,1.74-.79,3.49-1.19,5.23-1.19,4.2,0,7.27,1.51,9.24,4.54,1.96,3.02,2.94,7.32,2.94,12.87v17.82c0,2.12-.71,3.91-2.12,5.35-1.42,1.44-3.32,2.17-5.72,2.17s-4.4-.72-5.84-2.17c-1.44-1.44-2.17-3.23-2.17-5.35v-14.47c0-1.96-.37-3.49-1.1-4.58-.74-1.09-1.81-1.63-3.23-1.63-1.63,0-2.82.6-3.56,1.8-.74,1.2-1.1,2.72-1.1,4.58v14.3c0,2.12-.68,3.91-2.04,5.35-1.36,1.44-3.24,2.17-5.64,2.17Z"/>
      <path class="cls-1" d="M237.27,63.18c-6.38,0-11.46-1.89-15.24-5.68-3.79-3.79-5.68-9.14-5.68-16.06,0-4.25.87-7.98,2.62-11.2,1.74-3.21,4.18-5.73,7.31-7.56,3.13-1.82,6.8-2.74,10.99-2.74,4.69,0,8.58.91,11.69,2.74,3.11,1.83,5.44,4.35,6.99,7.56,1.55,3.22,2.33,6.95,2.33,11.2,0,6.92-1.73,12.27-5.19,16.06-3.46,3.79-8.73,5.68-15.82,5.68ZM226.08,40.05c0,1.69.84,2.88,2.53,3.56,1.69.68,4.58,1.02,8.66,1.02s6.97-.34,8.66-1.02c1.69-.68,2.53-1.87,2.53-3.56s-.85-2.78-2.53-3.43c-1.69-.65-4.58-.98-8.66-.98s-6.98.33-8.66.98c-1.69.65-2.53,1.8-2.53,3.43Z"/>
      <path class="cls-1" d="M269.97,63.02c-2.67,0-4.67-.71-6.01-2.12-1.34-1.42-2-3.19-2-5.31V8.17c0-2.34.67-4.29,2-5.84,1.33-1.55,3.34-2.33,6.01-2.33,2.4,0,4.25.78,5.56,2.33,1.31,1.55,1.96,3.45,1.96,5.68v47.57c0,2.12-.65,3.9-1.96,5.31-1.31,1.42-3.16,2.12-5.56,2.12Z"/>
      <path class="cls-1" d="M302.17,63.18c-6.38,0-11.46-1.89-15.24-5.68-3.79-3.79-5.68-9.14-5.68-16.06,0-4.25.87-7.98,2.62-11.2,1.74-3.21,4.18-5.73,7.31-7.56,3.13-1.82,6.8-2.74,10.99-2.74,4.69,0,8.58.91,11.69,2.74,3.11,1.83,5.44,4.35,6.99,7.56,1.55,3.22,2.33,6.95,2.33,11.2,0,6.92-1.73,12.27-5.19,16.06-3.46,3.79-8.73,5.68-15.82,5.68ZM290.97,40.05c0,1.69.84,2.88,2.53,3.56,1.69.68,4.58,1.02,8.66,1.02s6.97-.34,8.66-1.02c1.69-.68,2.53-1.87,2.53-3.56s-.85-2.78-2.53-3.43c-1.69-.65-4.58-.98-8.66-.98s-6.98.33-8.66.98c-1.69.65-2.53,1.8-2.53,3.43Z"/>
      <path class="cls-1" d="M346.23,79.85c-3.32,0-6.14-.35-8.46-1.06-2.32-.71-4.54-1.8-6.66-3.27-1.85-1.31-3.16-3.13-3.92-5.48-.76-2.34-.38-4.71,1.14-7.11.98-1.47,2.08-2.48,3.31-3.02,1.23-.54,2.42-.78,3.6-.69,1.17.08,2.19.34,3.06.78,1.91.93,3.39,1.59,4.45,2,1.06.41,2.27.61,3.64.61,2.02,0,3.72-.71,5.11-2.12,1.39-1.42,2.08-3.4,2.08-5.97v-6.62h-1.47c-.38,2.89-1.49,5.16-3.31,6.83-1.83,1.66-4.32,2.49-7.48,2.49-2.4,0-4.74-.6-7.03-1.8-2.29-1.2-4.17-3.11-5.64-5.72s-2.21-6.08-2.21-10.38c0-6.32,1.39-11.03,4.17-14.14,2.78-3.11,6.38-4.66,10.79-4.66,3.05,0,5.67,1.02,7.85,3.07,2.18,2.04,3.27,4.89,3.27,8.54l.25-.08v-4.58c0-1.91.61-3.58,1.84-5.03,1.23-1.44,3.15-2.17,5.76-2.17,2.78,0,4.78.72,6.01,2.17,1.23,1.44,1.84,3.12,1.84,5.03l.08,25.75c.05,5.67-.64,10.49-2.08,14.47-1.44,3.98-3.79,7-7.03,9.07-3.24,2.07-7.56,3.11-12.96,3.11ZM340.18,37.92c0,2.94,1.96,4.41,5.89,4.41,2.56,0,4.36-.35,5.39-1.06,1.03-.71,1.55-1.82,1.55-3.35s-.53-2.67-1.59-3.27c-1.06-.6-2.88-.9-5.44-.9-1.85,0-3.28.3-4.29.9-1.01.6-1.51,1.69-1.51,3.27Z"/>
      <path class="cls-1" d="M372.13,10.79c0-2.34.72-4.24,2.17-5.68s3.45-2.17,6.01-2.17c2.72,0,4.75.71,6.09,2.12,1.33,1.42,2,3.3,2,5.64s-.67,4.13-2,5.52c-1.34,1.39-3.37,2.08-6.09,2.08s-4.7-.7-6.09-2.08c-1.39-1.39-2.08-3.2-2.08-5.44ZM380.31,63.02c-2.56,0-4.47-.71-5.72-2.12-1.25-1.42-1.88-3.19-1.88-5.31v-27.95c0-2.34.63-4.2,1.88-5.56,1.25-1.36,3.16-2.04,5.72-2.04s4.48.68,5.76,2.04c1.28,1.36,1.92,3.16,1.92,5.39v28.12c0,2.12-.67,3.9-2,5.31-1.34,1.42-3.23,2.12-5.68,2.12Z"/>
      <path class="cls-1" d="M392.16,41.77c0-4.3.86-8.09,2.57-11.36s4.17-5.83,7.36-7.68c3.19-1.85,6.99-2.78,11.4-2.78,3.43,0,6.52.63,9.28,1.88,2.75,1.25,4.92,2.93,6.5,5.03,1.58,2.1,2.37,4.4,2.37,6.91s-.76,4.47-2.29,5.56c-1.53,1.09-3.79,1.63-6.78,1.63h-17.16c0,1.42.56,2.59,1.68,3.51,1.12.93,3.01,1.39,5.68,1.39,1.36,0,2.63-.13,3.8-.41,1.17-.27,2.37-.53,3.6-.78s2.6-.37,4.13-.37c2.18,0,3.98.78,5.39,2.33,1.42,1.55,2.12,3.69,2.12,6.42,0,3.22-1.65,5.72-4.94,7.52-3.3,1.8-7.62,2.7-12.96,2.7-3.76,0-7.29-.74-10.58-2.21-3.3-1.47-5.98-3.8-8.05-6.99-2.07-3.19-3.11-7.29-3.11-12.3ZM418.64,38.25c.82,0,1.09-.38.82-1.14-.22-.76-.87-1.55-1.96-2.37-1.09-.82-2.67-1.23-4.74-1.23-2.4,0-4.18.52-5.35,1.55-1.17,1.04-1.76,2.1-1.76,3.19h13Z"/>
      <path class="cls-1" d="M456.08,64.08c-3.76,0-7.23-.37-10.42-1.1s-5.74-1.91-7.64-3.51c-1.91-1.61-2.86-3.75-2.86-6.42,0-2.34.71-4.28,2.12-5.8,1.42-1.52,3.3-2.29,5.64-2.29,1.47,0,2.96.23,4.45.69,1.5.46,3.09.91,4.78,1.35,1.69.44,3.51.65,5.48.65,1.74,0,2.91-.09,3.51-.29.6-.19.9-.56.9-1.1,0-.65-.37-1.09-1.1-1.31-.74-.22-1.98-.49-3.72-.82l-5.88-1.14c-2.45-.49-4.84-1.13-7.15-1.92-2.32-.79-4.22-1.97-5.72-3.56-1.5-1.58-2.25-3.73-2.25-6.46,0-3.71,1.65-6.59,4.94-8.66,3.3-2.07,8.08-3.11,14.34-3.11,3.6,0,6.82.36,9.69,1.06,2.86.71,5.14,1.76,6.83,3.15,1.69,1.39,2.53,3.12,2.53,5.19.05,2.24-.55,4.03-1.8,5.39-1.25,1.36-2.83,2.04-4.74,2.04-1.36,0-2.74-.18-4.13-.53-1.39-.35-2.89-.74-4.5-1.14-1.61-.41-3.45-.64-5.52-.7-1.47-.11-2.67-.03-3.6.25-.93.27-1.39.71-1.39,1.31,0,.65.54,1.1,1.63,1.35,1.09.25,2.72.56,4.9.94l5.8,1.06c3.54.6,6.36,1.35,8.46,2.25,2.1.9,3.61,2.14,4.54,3.72.93,1.58,1.39,3.76,1.39,6.54s-.83,5.3-2.49,7.23c-1.66,1.93-3.96,3.37-6.91,4.29-2.94.93-6.32,1.39-10.14,1.39Z"/>
      <path class="cls-1" d="M492.2,30c-3.22,0-5.72-.86-7.52-2.57-1.8-1.72-2.7-3.99-2.7-6.83s.91-5.23,2.74-7.03c1.82-1.8,4.32-2.7,7.48-2.7s5.48.89,7.27,2.66c1.8,1.77,2.7,4.1,2.7,6.99s-.87,5.12-2.62,6.87c-1.74,1.74-4.2,2.62-7.36,2.62ZM481.98,51.49c0-2.89.91-5.23,2.74-7.03,1.82-1.8,4.32-2.7,7.48-2.7s5.48.89,7.27,2.66c1.8,1.77,2.7,4.1,2.7,6.99s-.87,5.12-2.62,6.87c-1.74,1.75-4.2,2.62-7.36,2.62s-5.72-.86-7.52-2.58c-1.8-1.72-2.7-3.99-2.7-6.82Z"/>
    </g>
  </g>
</svg>