<?xml version="1.0" encoding="UTF-8"?>
<svg id="Layer_2" data-name="Layer 2" xmlns="http://www.w3.org/2000/svg" viewBox="0 0 494.37 66.21">
  <defs>
    <style>
      .cls-1 {
        fill: #52bce3;
        stroke-width: 0px;
      }
    </style>
  </defs>
  <g id="Layer_1-2" data-name="Layer 1">
    <g>
      <path class="cls-1" d="M23.83,65.39c-3.32,0-5.94-.82-7.85-2.45-1.91-1.63-3.42-3.88-4.54-6.74-1.12-2.86-2.17-6.12-3.15-9.77L.37,17c-.6-2.29-.46-4.43.41-6.42.87-1.99,2.59-3.31,5.15-3.96,2.4-.65,4.52-.49,6.38.49,1.85.98,3.11,2.7,3.76,5.15l7.36,26.89c.65,2.34,1.35,4.06,2.08,5.15.74,1.09,1.92,1.44,3.56,1.06,1.52-.38,2.34-1.23,2.45-2.53.11-1.31-.16-3.16-.82-5.56l-5.23-19.86c-.71-2.72-.61-5.08.29-7.07.9-1.99,2.68-3.28,5.35-3.88,2.72-.65,4.92-.31,6.58,1.02,1.66,1.34,2.79,3.2,3.39,5.6l6.62,26.07c.71,2.67,1.48,4.47,2.33,5.39.84.93,1.95,1.2,3.31.82,1.52-.44,2.26-1.29,2.21-2.58-.05-1.28-.25-3.15-.57-5.6-.49-3.81-.91-6.95-1.27-9.4-.35-2.45-.63-4.5-.82-6.13-.19-1.63-.29-3.13-.29-4.5,0-3.05.9-5.65,2.7-7.81,1.8-2.15,4.25-3.23,7.36-3.23s5.56.97,7.19,2.9c1.63,1.94,2.45,4.59,2.45,7.97,0,2.18-.31,4.47-.94,6.87-.63,2.4-1.24,4.66-1.84,6.78l-4.58,15.78c-1.04,3.6-2.06,6.82-3.07,9.69-1.01,2.86-2.36,5.12-4.05,6.78-1.69,1.66-4.09,2.49-7.19,2.49-3.76,0-6.7-1.17-8.83-3.51-2.12-2.34-3.76-6.18-4.9-11.52h-.57c-1.09,5.34-2.53,9.18-4.33,11.52-1.8,2.34-4.52,3.51-8.17,3.51Z"/>
      <path class="cls-1" d="M84.14,65.14c-2.4,0-4.29-.72-5.68-2.17-1.39-1.44-2.08-3.23-2.08-5.35V10.3c0-2.29.69-4.22,2.08-5.8,1.39-1.58,3.36-2.37,5.93-2.37s4.4.79,5.68,2.37c1.28,1.58,1.92,3.54,1.92,5.88v24.44h1.47c0-3.11.56-5.56,1.68-7.36,1.12-1.8,2.56-3.09,4.33-3.88,1.77-.79,3.58-1.18,5.44-1.18,3.27,0,5.76.8,7.48,2.41,1.72,1.61,2.89,3.75,3.51,6.42.63,2.67.94,5.59.94,8.75v17.65c0,2.24-.72,4.05-2.17,5.44-1.44,1.39-3.37,2.08-5.76,2.08s-4.39-.69-5.8-2.08c-1.42-1.39-2.12-3.2-2.12-5.44v-14.47c0-1.96-.38-3.49-1.14-4.58-.76-1.09-1.88-1.63-3.35-1.63s-2.59.6-3.35,1.8c-.76,1.2-1.14,2.73-1.14,4.58v14.3c0,2.12-.69,3.91-2.08,5.35-1.39,1.44-3.31,2.17-5.76,2.17Z"/>
      <path class="cls-1" d="M133.19,65.14c-4.03,0-7.18-1.09-9.44-3.27-2.26-2.18-3.39-5.23-3.39-9.15s1.31-6.77,3.92-8.54c2.62-1.77,5.97-2.66,10.05-2.66,2.4,0,4.58.16,6.54.49,1.96.33,3.73.79,5.31,1.39h.25v-1.23c0-1.25-.46-2.25-1.39-2.98-.93-.74-2.1-1.08-3.51-1.02-1.36,0-2.52.08-3.47.25-.95.16-2.14.44-3.56.82-2.62.65-4.88.6-6.78-.16-1.91-.76-3.22-2.26-3.92-4.5-.65-2.34-.5-4.3.45-5.89.95-1.58,2.41-2.81,4.37-3.68,1.69-.82,3.58-1.5,5.68-2.04,2.1-.54,4.37-.82,6.82-.82,7.14,0,12.38,1.73,15.73,5.19,3.35,3.46,5.03,9.25,5.03,17.37v12.67c0,2.24-.68,4.09-2.04,5.56-1.36,1.47-3.24,2.21-5.64,2.21-2.62,0-4.56-.74-5.84-2.21-1.28-1.47-1.92-3.27-1.92-5.39v-1.88h-1.63c0,1.42-.26,2.86-.78,4.33-.52,1.47-1.58,2.7-3.19,3.68-1.61.98-4.16,1.47-7.64,1.47ZM134,47.24c0,.93.34,1.58,1.02,1.96.68.38,2.17.57,4.45.57,2.07,0,3.51-.19,4.33-.57.82-.38,1.23-1.03,1.23-1.96,0-.87-.41-1.48-1.23-1.84-.82-.35-2.26-.53-4.33-.53-2.29,0-3.77.18-4.45.53-.68.36-1.02.97-1.02,1.84Z"/>
      <path class="cls-1" d="M187.13,65.39c-2.89,0-5.49-.65-7.81-1.96-2.32-1.31-4.13-3.17-5.44-5.6-1.31-2.42-1.96-5.27-1.96-8.54v-14.39l-3.02.41c-1.63.22-3.08-.35-4.33-1.72-1.25-1.36-1.88-3.08-1.88-5.15s.63-3.77,1.88-5.11c1.25-1.33,2.7-1.89,4.33-1.67l3.02.41-.08-5.56c-.05-2.18.57-3.91,1.88-5.19,1.31-1.28,3.21-1.92,5.72-1.92s4.44.64,5.8,1.92c1.36,1.28,1.99,3.01,1.88,5.19l-.16,5.56,4.33-.57c2.94-.44,5.18.1,6.7,1.59,1.52,1.5,2.29,3.28,2.29,5.35s-.75,3.86-2.25,5.35c-1.5,1.5-3.67,2.06-6.5,1.67l-4.58-.57v12.18c0,.71.25,1.35.74,1.92.49.57,1.09.75,1.8.53.82-.22,1.68-.68,2.57-1.39.9-.71,2.06-1.06,3.47-1.06,2.13,0,3.76.76,4.9,2.29,1.14,1.53,1.72,3.41,1.72,5.64,0,1.74-.61,3.42-1.84,5.03-1.23,1.61-2.96,2.9-5.19,3.88-2.23.98-4.9,1.47-8.01,1.47Z"/>
      <path class="cls-1" d="M207.81,25.75c0-1.36.46-2.44,1.39-3.23.93-.79,2.4-1.18,4.41-1.18,1.47,0,2.82.01,4.05.04s2.03.04,2.41.04l-.57-3.43c-.33.16-.93.4-1.8.7-.87.3-2.13.45-3.76.45-2.67,0-4.99-.75-6.95-2.25-1.96-1.5-2.94-3.83-2.94-6.99,0-3.32.94-5.8,2.82-7.44s4.32-2.45,7.32-2.45,5.5.82,7.36,2.45c1.85,1.63,2.78,4.11,2.78,7.44,0,1.96-.1,4.1-.29,6.42-.19,2.32-.63,4.54-1.31,6.66-.68,2.12-1.74,3.86-3.19,5.19-1.44,1.34-3.42,2-5.93,2-2.02,0-3.49-.39-4.41-1.19-.93-.79-1.39-1.87-1.39-3.23Z"/>
      <path class="cls-1" d="M248.92,66.21c-3.76,0-7.23-.37-10.42-1.1-3.19-.74-5.74-1.91-7.64-3.51-1.91-1.61-2.86-3.75-2.86-6.42,0-2.34.71-4.28,2.12-5.8,1.42-1.53,3.3-2.29,5.64-2.29,1.47,0,2.96.23,4.45.7,1.5.46,3.09.91,4.78,1.35,1.69.44,3.51.65,5.48.65,1.74,0,2.91-.09,3.51-.29.6-.19.9-.56.9-1.1,0-.65-.37-1.09-1.1-1.31-.74-.22-1.98-.49-3.72-.82l-5.88-1.14c-2.45-.49-4.84-1.13-7.15-1.92-2.32-.79-4.22-1.97-5.72-3.56-1.5-1.58-2.25-3.73-2.25-6.46,0-3.71,1.65-6.59,4.94-8.66,3.3-2.07,8.08-3.11,14.34-3.11,3.6,0,6.82.36,9.69,1.06s5.14,1.76,6.83,3.15c1.69,1.39,2.53,3.12,2.53,5.19.05,2.23-.55,4.03-1.8,5.39-1.25,1.36-2.83,2.04-4.74,2.04-1.36,0-2.74-.18-4.13-.53-1.39-.35-2.89-.74-4.5-1.14-1.61-.41-3.45-.64-5.52-.69-1.47-.11-2.67-.03-3.6.25-.93.27-1.39.71-1.39,1.31,0,.65.54,1.1,1.63,1.35,1.09.25,2.72.56,4.9.94l5.8,1.06c3.54.6,6.36,1.35,8.46,2.25,2.1.9,3.61,2.14,4.54,3.72.93,1.58,1.39,3.76,1.39,6.54s-.83,5.3-2.49,7.23c-1.66,1.94-3.96,3.37-6.91,4.29-2.94.93-6.32,1.39-10.14,1.39Z"/>
      <path class="cls-1" d="M295.92,65.14c-2.73,0-4.8-.84-6.21-2.53-1.42-1.69-2.12-3.95-2.12-6.78V17.49c0-2.83.53-5.13,1.59-6.91,1.06-1.77,2.45-3.07,4.17-3.88s3.58-1.23,5.6-1.23c3,0,5.53.79,7.6,2.37,2.07,1.58,3.68,4.36,4.82,8.34l8.83,30.16h1.31V14.96c0-2.89.74-5.16,2.21-6.82,1.47-1.66,3.57-2.49,6.29-2.49s4.94.83,6.33,2.49,2.08,3.94,2.08,6.82v36.94c0,4.58-1.01,7.96-3.02,10.14-2.02,2.18-4.85,3.27-8.5,3.27s-6.59-.98-8.66-2.94c-2.07-1.96-3.65-4.85-4.74-8.66l-5.8-19.86c-.11-.54-.31-1.05-.61-1.51-.3-.46-.69-.69-1.19-.69-.6,0-1.01.23-1.23.69-.22.46-.33.97-.33,1.51v21.99c0,2.83-.71,5.1-2.12,6.78-1.42,1.69-3.51,2.53-6.29,2.53Z"/>
      <path class="cls-1" d="M342.92,43.89c0-4.3.86-8.09,2.57-11.36s4.17-5.83,7.36-7.68c3.19-1.85,6.99-2.78,11.4-2.78,3.43,0,6.52.63,9.28,1.88,2.75,1.25,4.92,2.93,6.5,5.03,1.58,2.1,2.37,4.4,2.37,6.91s-.76,4.47-2.29,5.56c-1.53,1.09-3.79,1.63-6.78,1.63h-17.16c0,1.42.56,2.59,1.68,3.51,1.12.93,3.01,1.39,5.68,1.39,1.36,0,2.63-.14,3.8-.41,1.17-.27,2.37-.53,3.6-.78s2.6-.37,4.13-.37c2.18,0,3.98.78,5.39,2.33,1.42,1.55,2.12,3.69,2.12,6.42,0,3.22-1.65,5.72-4.94,7.52-3.3,1.8-7.62,2.7-12.96,2.7-3.76,0-7.29-.74-10.58-2.21-3.3-1.47-5.98-3.8-8.05-6.99-2.07-3.19-3.11-7.29-3.11-12.3ZM369.4,40.38c.82,0,1.09-.38.82-1.14-.22-.76-.87-1.55-1.96-2.37-1.09-.82-2.67-1.23-4.74-1.23-2.4,0-4.18.52-5.35,1.55-1.17,1.04-1.76,2.1-1.76,3.19h13Z"/>
      <path class="cls-1" d="M394.73,65.47c-3.16,0-5.55-.91-7.15-2.74-1.61-1.83-2.41-3.99-2.41-6.5,0-1.58.41-3.21,1.23-4.9.82-1.69,2.18-3.13,4.09-4.33,1.09-.71,2.49-1.27,4.21-1.68,1.72-.41,3.26-.75,4.62-1.02-3-.93-5.34-2.02-7.03-3.27-1.69-1.25-3.08-2.53-4.17-3.84-1.53-2.07-2.22-4.32-2.08-6.74.14-2.42,1.24-4.51,3.31-6.25,1.47-1.25,3.09-1.91,4.86-1.96,1.77-.05,3.47.41,5.11,1.39,1.63.98,2.97,2.43,4,4.33,1.2,2.12,2.06,3.96,2.57,5.52.52,1.55,1.12,2.96,1.8,4.21.68,1.25,1.78,2.51,3.31,3.76.65-.22,1.23-.52,1.72-.9.49-.38,1.03-1.14,1.63-2.29-1.36-.33-2.59-1.14-3.68-2.45-1.09-1.31-1.63-3.13-1.63-5.48,0-2.5.76-4.51,2.29-6.01,1.52-1.5,3.79-2.25,6.78-2.25,2.45,0,4.44.8,5.97,2.41,1.52,1.61,2.29,3.61,2.29,6.01,0,2.56-.5,4.59-1.51,6.09-1.01,1.5-2.36,2.79-4.05,3.88-.87.65-1.93,1.21-3.19,1.68-1.25.46-2.59.86-4.01,1.18,2.23.33,4.36.95,6.38,1.88,2.02.93,3.87,2.26,5.56,4,1.25,1.25,2.11,2.77,2.57,4.54.46,1.77.46,3.53,0,5.27-.46,1.74-1.43,3.22-2.9,4.41-1.53,1.2-3.22,1.82-5.07,1.88-1.85.05-3.61-.39-5.27-1.35-1.66-.95-2.98-2.33-3.96-4.13-.98-1.8-1.74-3.58-2.29-5.35-.54-1.77-1.16-3.41-1.84-4.9-.68-1.5-1.68-2.71-2.98-3.64-.87.49-1.39,1.08-1.55,1.76-.16.68-.12,1.44.12,2.29.25.85.52,1.75.82,2.7.3.95.45,1.95.45,2.98,0,1.63-.33,3.2-.98,4.7-.65,1.5-1.65,2.73-2.98,3.68-1.34.95-2.98,1.43-4.94,1.43Z"/>
      <path class="cls-1" d="M453.09,65.39c-2.89,0-5.49-.65-7.81-1.96-2.32-1.31-4.13-3.17-5.44-5.6-1.31-2.42-1.96-5.27-1.96-8.54v-14.39l-3.02.41c-1.63.22-3.08-.35-4.33-1.72-1.25-1.36-1.88-3.08-1.88-5.15s.63-3.77,1.88-5.11c1.25-1.33,2.7-1.89,4.33-1.67l3.02.41-.08-5.56c-.05-2.18.57-3.91,1.88-5.19,1.31-1.28,3.21-1.92,5.72-1.92s4.44.64,5.8,1.92c1.36,1.28,1.99,3.01,1.88,5.19l-.16,5.56,4.33-.57c2.94-.44,5.18.1,6.7,1.59,1.52,1.5,2.29,3.28,2.29,5.35s-.75,3.86-2.25,5.35c-1.5,1.5-3.67,2.06-6.5,1.67l-4.58-.57v12.18c0,.71.25,1.35.74,1.92.49.57,1.09.75,1.8.53.82-.22,1.68-.68,2.57-1.39.9-.71,2.06-1.06,3.47-1.06,2.13,0,3.76.76,4.9,2.29,1.14,1.53,1.72,3.41,1.72,5.64,0,1.74-.61,3.42-1.84,5.03-1.23,1.61-2.96,2.9-5.19,3.88-2.23.98-4.9,1.47-8.01,1.47Z"/>
      <path class="cls-1" d="M484.4,32.12c-3.22,0-5.72-.86-7.52-2.58-1.8-1.72-2.7-3.99-2.7-6.82s.91-5.23,2.74-7.03c1.82-1.8,4.32-2.7,7.48-2.7s5.48.89,7.27,2.66c1.8,1.77,2.7,4.1,2.7,6.99s-.87,5.12-2.62,6.87c-1.74,1.75-4.2,2.62-7.36,2.62ZM474.18,53.62c0-2.89.91-5.23,2.74-7.03,1.82-1.8,4.32-2.7,7.48-2.7s5.48.89,7.27,2.66c1.8,1.77,2.7,4.1,2.7,6.99s-.87,5.12-2.62,6.87c-1.74,1.74-4.2,2.62-7.36,2.62s-5.72-.86-7.52-2.57c-1.8-1.72-2.7-3.99-2.7-6.83Z"/>
    </g>
  </g>
</svg>