<?xml version="1.0" encoding="UTF-8"?>
<svg id="Layer_2" data-name="Layer 2" xmlns="http://www.w3.org/2000/svg" viewBox="0 0 681.95 63.26">
  <defs>
    <style>
      .cls-1 {
        fill: #52bce3;
        stroke-width: 0px;
      }
    </style>
  </defs>
  <g id="Layer_1-2" data-name="Layer 1">
    <path class="cls-1" d="M23.83,63.26c-3.32,0-5.94-.82-7.85-2.45-1.91-1.63-3.42-3.88-4.54-6.74-1.12-2.86-2.17-6.12-3.15-9.77L.37,14.88c-.6-2.29-.46-4.43.41-6.42.87-1.99,2.59-3.31,5.15-3.96,2.4-.65,4.52-.49,6.38.49,1.85.98,3.11,2.7,3.76,5.15l7.36,26.89c.65,2.34,1.35,4.06,2.08,5.15.74,1.09,1.92,1.44,3.56,1.06,1.52-.38,2.34-1.23,2.45-2.53.11-1.31-.16-3.16-.82-5.56l-5.23-19.86c-.71-2.72-.61-5.08.29-7.07.9-1.99,2.68-3.28,5.35-3.88,2.72-.65,4.92-.31,6.58,1.02,1.66,1.34,2.79,3.2,3.39,5.6l6.62,26.07c.71,2.67,1.48,4.47,2.33,5.39.84.93,1.95,1.2,3.31.82,1.52-.44,2.26-1.29,2.21-2.57-.05-1.28-.25-3.15-.57-5.6-.49-3.81-.91-6.95-1.27-9.4-.35-2.45-.63-4.5-.82-6.13-.19-1.63-.29-3.13-.29-4.5,0-3.05.9-5.65,2.7-7.81,1.8-2.15,4.25-3.23,7.36-3.23s5.56.97,7.19,2.9c1.63,1.93,2.45,4.59,2.45,7.97,0,2.18-.31,4.47-.94,6.87-.63,2.4-1.24,4.66-1.84,6.78l-4.58,15.77c-1.04,3.6-2.06,6.83-3.07,9.69-1.01,2.86-2.36,5.12-4.05,6.78-1.69,1.66-4.09,2.49-7.19,2.49-3.76,0-6.7-1.17-8.83-3.51-2.12-2.34-3.76-6.18-4.9-11.52h-.57c-1.09,5.34-2.53,9.18-4.33,11.52-1.8,2.34-4.52,3.51-8.17,3.51Z"/>
    <path class="cls-1" d="M84.14,63.02c-2.4,0-4.29-.72-5.68-2.17-1.39-1.44-2.08-3.23-2.08-5.35V8.17c0-2.29.69-4.22,2.08-5.8,1.39-1.58,3.36-2.37,5.93-2.37s4.4.79,5.68,2.37c1.28,1.58,1.92,3.54,1.92,5.88v24.44h1.47c0-3.11.56-5.56,1.68-7.36,1.12-1.8,2.56-3.09,4.33-3.88,1.77-.79,3.58-1.18,5.44-1.18,3.27,0,5.76.8,7.48,2.41,1.72,1.61,2.89,3.75,3.51,6.42.63,2.67.94,5.59.94,8.75v17.66c0,2.23-.72,4.05-2.17,5.44-1.44,1.39-3.37,2.08-5.76,2.08s-4.39-.69-5.8-2.08c-1.42-1.39-2.12-3.2-2.12-5.44v-14.47c0-1.96-.38-3.49-1.14-4.58-.76-1.09-1.88-1.63-3.35-1.63s-2.59.6-3.35,1.8c-.76,1.2-1.14,2.73-1.14,4.58v14.3c0,2.12-.69,3.91-2.08,5.35-1.39,1.44-3.31,2.17-5.76,2.17Z"/>
    <path class="cls-1" d="M133.19,63.02c-4.03,0-7.18-1.09-9.44-3.27-2.26-2.18-3.39-5.23-3.39-9.15s1.31-6.77,3.92-8.54c2.62-1.77,5.97-2.66,10.05-2.66,2.4,0,4.58.16,6.54.49,1.96.33,3.73.79,5.31,1.39h.25v-1.23c0-1.25-.46-2.25-1.39-2.98-.93-.74-2.1-1.08-3.51-1.02-1.36,0-2.52.08-3.47.25-.95.16-2.14.44-3.56.82-2.62.65-4.88.6-6.78-.16-1.91-.76-3.22-2.26-3.92-4.5-.65-2.34-.5-4.3.45-5.88.95-1.58,2.41-2.81,4.37-3.68,1.69-.82,3.58-1.5,5.68-2.04,2.1-.54,4.37-.82,6.82-.82,7.14,0,12.38,1.73,15.73,5.19,3.35,3.46,5.03,9.25,5.03,17.37v12.67c0,2.23-.68,4.09-2.04,5.56-1.36,1.47-3.24,2.21-5.64,2.21-2.62,0-4.56-.74-5.84-2.21-1.28-1.47-1.92-3.27-1.92-5.39v-1.88h-1.63c0,1.42-.26,2.86-.78,4.33-.52,1.47-1.58,2.7-3.19,3.68-1.61.98-4.16,1.47-7.64,1.47ZM134,45.12c0,.93.34,1.58,1.02,1.96.68.38,2.17.57,4.45.57,2.07,0,3.51-.19,4.33-.57.82-.38,1.23-1.03,1.23-1.96,0-.87-.41-1.48-1.23-1.84-.82-.35-2.26-.53-4.33-.53-2.29,0-3.77.18-4.45.53-.68.36-1.02.97-1.02,1.84Z"/>
    <path class="cls-1" d="M187.13,63.26c-2.89,0-5.49-.65-7.81-1.96-2.32-1.31-4.13-3.17-5.44-5.6-1.31-2.42-1.96-5.27-1.96-8.54v-14.39l-3.02.41c-1.63.22-3.08-.35-4.33-1.72-1.25-1.36-1.88-3.08-1.88-5.15s.63-3.77,1.88-5.11c1.25-1.33,2.7-1.89,4.33-1.68l3.02.41-.08-5.56c-.05-2.18.57-3.91,1.88-5.19,1.31-1.28,3.21-1.92,5.72-1.92s4.44.64,5.8,1.92c1.36,1.28,1.99,3.01,1.88,5.19l-.16,5.56,4.33-.57c2.94-.44,5.18.1,6.7,1.59,1.52,1.5,2.29,3.28,2.29,5.35s-.75,3.86-2.25,5.35c-1.5,1.5-3.67,2.06-6.5,1.68l-4.58-.57v12.18c0,.71.25,1.35.74,1.92.49.57,1.09.75,1.8.53.82-.22,1.68-.68,2.57-1.39.9-.71,2.06-1.06,3.47-1.06,2.13,0,3.76.76,4.9,2.29,1.14,1.53,1.72,3.41,1.72,5.64,0,1.74-.61,3.42-1.84,5.03-1.23,1.61-2.96,2.9-5.19,3.88-2.23.98-4.9,1.47-8.01,1.47Z"/>
    <path class="cls-1" d="M244.02,63.26c-3.32,0-5.94-.82-7.85-2.45-1.91-1.63-3.42-3.88-4.54-6.74-1.12-2.86-2.17-6.12-3.15-9.77l-7.93-29.42c-.6-2.29-.46-4.43.41-6.42.87-1.99,2.59-3.31,5.15-3.96,2.4-.65,4.52-.49,6.38.49,1.85.98,3.11,2.7,3.76,5.15l7.36,26.89c.65,2.34,1.35,4.06,2.08,5.15.74,1.09,1.92,1.44,3.56,1.06,1.52-.38,2.34-1.23,2.45-2.53.11-1.31-.16-3.16-.82-5.56l-5.23-19.86c-.71-2.72-.61-5.08.29-7.07.9-1.99,2.68-3.28,5.35-3.88,2.72-.65,4.92-.31,6.58,1.02,1.66,1.34,2.79,3.2,3.39,5.6l6.62,26.07c.71,2.67,1.48,4.47,2.33,5.39.84.93,1.95,1.2,3.31.82,1.52-.44,2.26-1.29,2.21-2.57-.05-1.28-.25-3.15-.57-5.6-.49-3.81-.91-6.95-1.27-9.4-.35-2.45-.63-4.5-.82-6.13-.19-1.63-.29-3.13-.29-4.5,0-3.05.9-5.65,2.7-7.81,1.8-2.15,4.25-3.23,7.36-3.23s5.56.97,7.19,2.9c1.63,1.93,2.45,4.59,2.45,7.97,0,2.18-.31,4.47-.94,6.87-.63,2.4-1.24,4.66-1.84,6.78l-4.58,15.77c-1.04,3.6-2.06,6.83-3.07,9.69-1.01,2.86-2.36,5.12-4.05,6.78-1.69,1.66-4.09,2.49-7.19,2.49-3.76,0-6.7-1.17-8.83-3.51-2.12-2.34-3.76-6.18-4.9-11.52h-.57c-1.09,5.34-2.53,9.18-4.33,11.52-1.8,2.34-4.52,3.51-8.17,3.51Z"/>
    <path class="cls-1" d="M290.12,41.77c0-4.3.86-8.09,2.57-11.36s4.17-5.83,7.36-7.68c3.19-1.85,6.99-2.78,11.4-2.78,3.43,0,6.52.63,9.28,1.88,2.75,1.25,4.92,2.93,6.5,5.03,1.58,2.1,2.37,4.4,2.37,6.91s-.76,4.47-2.29,5.56c-1.53,1.09-3.79,1.63-6.78,1.63h-17.16c0,1.42.56,2.59,1.68,3.51,1.12.93,3.01,1.39,5.68,1.39,1.36,0,2.63-.14,3.8-.41,1.17-.27,2.37-.53,3.6-.78s2.6-.37,4.13-.37c2.18,0,3.98.78,5.39,2.33,1.42,1.55,2.12,3.69,2.12,6.42,0,3.22-1.65,5.72-4.94,7.52-3.3,1.8-7.62,2.7-12.96,2.7-3.76,0-7.29-.74-10.58-2.21-3.3-1.47-5.98-3.8-8.05-6.99-2.07-3.19-3.11-7.29-3.11-12.3ZM316.6,38.25c.82,0,1.09-.38.82-1.14-.22-.76-.87-1.55-1.96-2.37-1.09-.82-2.67-1.23-4.74-1.23-2.4,0-4.18.52-5.35,1.55-1.17,1.04-1.76,2.1-1.76,3.19h13Z"/>
    <path class="cls-1" d="M348.56,11.44c0-2.51.78-4.45,2.33-5.84,1.55-1.39,3.56-2.08,6.01-2.08s4.6.69,6.13,2.08c1.52,1.39,2.29,3.34,2.29,5.84v34.82c0,1.04.27,1.76.82,2.17.54.41,1.44.26,2.7-.45,2.72-1.58,5.15-2.85,7.27-3.8,2.12-.95,4.47-1.43,7.03-1.43,3.54,0,6.21.93,8.01,2.78,1.8,1.85,2.7,4.28,2.7,7.27,0,3.22-.97,5.69-2.9,7.44-1.93,1.75-5.03,2.62-9.28,2.62h-16.84c-3.6,0-6.59-.42-8.99-1.27-2.4-.84-4.21-2.38-5.44-4.62-1.23-2.23-1.84-5.48-1.84-9.73V11.44Z"/>
    <path class="cls-1" d="M396.45,41.77c0-4.3.86-8.09,2.57-11.36s4.17-5.83,7.36-7.68c3.19-1.85,6.99-2.78,11.4-2.78,3.43,0,6.52.63,9.28,1.88,2.75,1.25,4.92,2.93,6.5,5.03,1.58,2.1,2.37,4.4,2.37,6.91s-.76,4.47-2.29,5.56c-1.53,1.09-3.79,1.63-6.78,1.63h-17.16c0,1.42.56,2.59,1.68,3.51,1.12.93,3.01,1.39,5.68,1.39,1.36,0,2.63-.14,3.8-.41,1.17-.27,2.37-.53,3.6-.78s2.6-.37,4.13-.37c2.18,0,3.98.78,5.39,2.33,1.42,1.55,2.12,3.69,2.12,6.42,0,3.22-1.65,5.72-4.94,7.52-3.3,1.8-7.62,2.7-12.96,2.7-3.76,0-7.29-.74-10.58-2.21-3.3-1.47-5.98-3.8-8.05-6.99-2.07-3.19-3.11-7.29-3.11-12.3ZM422.93,38.25c.82,0,1.09-.38.82-1.14-.22-.76-.87-1.55-1.96-2.37-1.09-.82-2.67-1.23-4.74-1.23-2.4,0-4.18.52-5.35,1.55-1.17,1.04-1.76,2.1-1.76,3.19h13Z"/>
    <path class="cls-1" d="M451.87,63.02c-4.03,0-7.18-1.09-9.44-3.27-2.26-2.18-3.39-5.23-3.39-9.15s1.31-6.77,3.92-8.54c2.62-1.77,5.97-2.66,10.05-2.66,2.4,0,4.58.16,6.54.49,1.96.33,3.73.79,5.31,1.39h.25v-1.23c0-1.25-.46-2.25-1.39-2.98-.93-.74-2.1-1.08-3.51-1.02-1.36,0-2.52.08-3.47.25-.95.16-2.14.44-3.56.82-2.62.65-4.88.6-6.78-.16-1.91-.76-3.22-2.26-3.92-4.5-.65-2.34-.5-4.3.45-5.88.95-1.58,2.41-2.81,4.37-3.68,1.69-.82,3.58-1.5,5.68-2.04,2.1-.54,4.37-.82,6.82-.82,7.14,0,12.38,1.73,15.73,5.19,3.35,3.46,5.03,9.25,5.03,17.37v12.67c0,2.23-.68,4.09-2.04,5.56-1.36,1.47-3.24,2.21-5.64,2.21-2.62,0-4.56-.74-5.84-2.21-1.28-1.47-1.92-3.27-1.92-5.39v-1.88h-1.63c0,1.42-.26,2.86-.78,4.33-.52,1.47-1.58,2.7-3.19,3.68-1.61.98-4.16,1.47-7.64,1.47ZM452.68,45.12c0,.93.34,1.58,1.02,1.96.68.38,2.17.57,4.45.57,2.07,0,3.51-.19,4.33-.57.82-.38,1.23-1.03,1.23-1.96,0-.87-.41-1.48-1.23-1.84-.82-.35-2.26-.53-4.33-.53-2.29,0-3.77.18-4.45.53-.68.36-1.02.97-1.02,1.84Z"/>
    <path class="cls-1" d="M492.9,63.02c-2.56,0-4.55-.74-5.97-2.21-1.42-1.47-2.12-3.32-2.12-5.56v-26.81c0-2.34.71-4.29,2.12-5.84,1.42-1.55,3.4-2.33,5.97-2.33s4.52.78,5.88,2.33c1.36,1.55,2.04,3.45,2.04,5.68v1.72h1.55c.22-2.89,1.31-5.26,3.27-7.11,1.96-1.85,4.28-2.78,6.95-2.78s4.78.82,6.33,2.45c1.55,1.63,2.33,3.81,2.33,6.54,0,2.56-.74,4.69-2.21,6.38-1.47,1.69-3.35,2.53-5.64,2.53-1.91,0-3.5-.45-4.78-1.35-1.28-.9-2.22-1.95-2.82-3.15-1.74-.22-3.01-.04-3.8.53-.79.57-1.19,1.7-1.19,3.39v17.82c0,2.23-.68,4.09-2.04,5.56-1.36,1.47-3.32,2.21-5.88,2.21Z"/>
    <path class="cls-1" d="M532.13,63.02c-2.4,0-4.32-.72-5.76-2.17-1.44-1.44-2.17-3.23-2.17-5.35v-27.05c0-2.29.68-4.22,2.04-5.8,1.36-1.58,3.32-2.37,5.89-2.37s4.41.79,5.72,2.37c1.31,1.58,1.96,3.57,1.96,5.97v4.09h1.47c0-3.11.56-5.56,1.67-7.36,1.12-1.8,2.55-3.09,4.29-3.88,1.74-.79,3.49-1.18,5.23-1.18,4.2,0,7.27,1.51,9.24,4.54,1.96,3.02,2.94,7.32,2.94,12.87v17.82c0,2.12-.71,3.91-2.12,5.35-1.42,1.44-3.32,2.17-5.72,2.17s-4.4-.72-5.84-2.17c-1.45-1.44-2.17-3.23-2.17-5.35v-14.47c0-1.96-.37-3.49-1.1-4.58-.74-1.09-1.81-1.63-3.23-1.63-1.64,0-2.82.6-3.56,1.8-.74,1.2-1.1,2.73-1.1,4.58v14.3c0,2.12-.68,3.91-2.04,5.35-1.36,1.44-3.24,2.17-5.64,2.17Z"/>
    <path class="cls-1" d="M568.58,41.77c0-4.3.86-8.09,2.57-11.36,1.72-3.27,4.17-5.83,7.36-7.68,3.19-1.85,6.99-2.78,11.4-2.78,3.43,0,6.52.63,9.28,1.88,2.75,1.25,4.92,2.93,6.5,5.03,1.58,2.1,2.37,4.4,2.37,6.91s-.76,4.47-2.29,5.56c-1.53,1.09-3.79,1.63-6.78,1.63h-17.16c0,1.42.56,2.59,1.68,3.51,1.12.93,3.01,1.39,5.68,1.39,1.36,0,2.63-.14,3.8-.41,1.17-.27,2.37-.53,3.6-.78,1.23-.25,2.6-.37,4.13-.37,2.18,0,3.98.78,5.39,2.33,1.42,1.55,2.12,3.69,2.12,6.42,0,3.22-1.65,5.72-4.95,7.52s-7.62,2.7-12.96,2.7c-3.76,0-7.29-.74-10.58-2.21-3.3-1.47-5.98-3.8-8.05-6.99-2.07-3.19-3.11-7.29-3.11-12.3ZM595.06,38.25c.82,0,1.09-.38.82-1.14-.22-.76-.87-1.55-1.96-2.37-1.09-.82-2.67-1.23-4.74-1.23-2.4,0-4.18.52-5.35,1.55s-1.76,2.1-1.76,3.19h13Z"/>
    <path class="cls-1" d="M626.45,63.02c-9.92,0-14.88-7.3-14.88-21.91,0-6.32,1.23-11.37,3.68-15.16s6.13-5.68,11.03-5.68c2.67,0,4.84.54,6.5,1.63,1.66,1.09,2.97,2.57,3.92,4.45.95,1.88,1.65,4.05,2.08,6.5l.25-.08V8.01c0-2.23.67-4.13,2-5.68,1.33-1.55,3.28-2.33,5.84-2.33s4.37.78,5.6,2.33c1.23,1.55,1.84,3.5,1.84,5.84v36.78c0,1.85.15,3.56.45,5.11.3,1.55.53,3.09.69,4.62.16,2.07-.26,3.86-1.27,5.35-1.01,1.5-2.79,2.47-5.35,2.9-3.32.54-5.79-.03-7.4-1.72-1.61-1.69-2.41-4.2-2.41-7.52v-3.02h-1.55c0,3.98-1,7.03-2.98,9.15-1.99,2.12-4.67,3.19-8.05,3.19ZM625.22,40.38c0,1.69.52,2.94,1.55,3.76,1.03.82,2.89,1.23,5.56,1.23s4.6-.41,5.64-1.23c1.03-.82,1.55-2.07,1.55-3.76s-.5-3.01-1.51-3.8c-1.01-.79-2.88-1.19-5.6-1.19s-4.61.4-5.64,1.19c-1.04.79-1.55,2.06-1.55,3.8Z"/>
    <path class="cls-1" d="M671.97,30c-3.22,0-5.72-.86-7.52-2.57s-2.7-3.99-2.7-6.83.91-5.23,2.74-7.03c1.83-1.8,4.32-2.7,7.48-2.7s5.48.89,7.27,2.66,2.7,4.1,2.7,6.99-.87,5.12-2.62,6.87-4.2,2.62-7.36,2.62ZM661.76,51.49c0-2.89.91-5.23,2.74-7.03,1.83-1.8,4.32-2.7,7.48-2.7s5.48.89,7.27,2.66c1.8,1.77,2.7,4.1,2.7,6.99s-.87,5.12-2.62,6.87c-1.75,1.74-4.2,2.62-7.36,2.62s-5.72-.86-7.52-2.58c-1.8-1.72-2.7-3.99-2.7-6.82Z"/>
  </g>
</svg>